<svg width="100" height="30" viewBox="0 0 100 30" fill="none" xmlns="http://www.w3.org/2000/svg">
<g clip-path="url(#clip0_1275_13816)">
<path d="M95.8938 0.655308C97.6563 0.655308 99.0874 2.07077 99.0874 3.81389V26.1927C99.0874 27.9358 97.6563 29.3512 95.8938 29.3512H3.85616C2.09372 29.3512 0.662571 27.9358 0.662571 26.1927V3.81389C0.662571 2.07077 2.09372 0.655308 3.85616 0.655308H95.8938ZM95.8938 0H3.85616C1.72931 0 0 1.71035 0 3.81389V26.1927C0 28.2962 1.72931 30.0066 3.85616 30.0066H95.8938C98.0207 30.0066 99.75 28.2962 99.75 26.1927V3.81389C99.75 1.71035 98.0273 0 95.8938 0Z" fill="white"/>
<path d="M10.5017 12.2608C8.88504 15.0393 9.91203 19.2529 11.701 21.8086C12.5954 23.0865 13.4965 24.2333 14.7355 24.2333C14.762 24.2333 14.7819 24.2333 14.8084 24.2333C15.3915 24.2136 15.8089 24.0301 16.2197 23.8598C16.6769 23.6697 17.1473 23.4666 17.8894 23.4666C18.5917 23.4666 19.0422 23.6566 19.4795 23.8466C19.9102 24.0301 20.3475 24.2202 21.0035 24.2071C22.4015 24.1809 23.2562 22.9423 24.0115 21.8545C24.8 20.7143 25.1975 19.6068 25.33 19.1874L25.3367 19.1677C25.3632 19.0957 25.3234 19.0105 25.2505 18.9777C25.2505 18.9777 25.2439 18.9712 25.2373 18.9712C24.9921 18.8729 22.8388 17.9292 22.8123 15.3473C22.7924 13.2503 24.4289 12.1428 24.7602 11.9463L24.7735 11.9397C24.8066 11.92 24.8331 11.8807 24.8397 11.8414C24.8464 11.8021 24.8397 11.7562 24.8132 11.7234C23.6802 10.0852 21.9509 9.84272 21.2552 9.80995C21.1558 9.79684 21.0498 9.79684 20.9438 9.79684C20.1222 9.79684 19.3404 10.1048 18.711 10.3473C18.2737 10.5177 17.9026 10.6619 17.6376 10.6619C17.3461 10.6619 16.9684 10.5111 16.5311 10.3408C15.948 10.1114 15.2788 9.84927 14.5765 9.84927C14.5566 9.84927 14.5434 9.84927 14.5301 9.84927C12.9002 9.86893 11.3564 10.7929 10.5017 12.2608Z" fill="white"/>
<path d="M21.2552 5.30143C20.268 5.34075 19.082 5.94363 18.373 6.76277C17.7701 7.45084 17.1804 8.60418 17.3394 9.76408C17.346 9.83616 17.4123 9.89514 17.4852 9.90169C17.5514 9.90825 17.6177 9.90825 17.6906 9.90825C18.6579 9.90825 19.6981 9.37745 20.4137 8.52555C21.1624 7.62777 21.5401 6.46788 21.4275 5.43904C21.4076 5.35385 21.3413 5.29488 21.2552 5.30143Z" fill="white"/>
<path d="M32.6382 5.89777H34.5133C35.0036 5.89777 35.4409 5.99606 35.8251 6.19921C36.2094 6.40235 36.501 6.67758 36.713 7.03145C36.925 7.38532 37.031 7.79161 37.031 8.23722C37.031 8.68938 36.925 9.08912 36.713 9.44298C36.501 9.79685 36.2028 10.0786 35.8251 10.2752C35.4409 10.4784 35.0036 10.5767 34.5133 10.5767H32.6382V5.89777ZM34.4868 10.2752C34.9241 10.2752 35.3083 10.19 35.6463 10.0197C35.9775 9.84927 36.2359 9.60681 36.4215 9.29881C36.6004 8.99082 36.6931 8.63695 36.6931 8.24377C36.6931 7.84403 36.6004 7.49672 36.4215 7.18872C36.2426 6.88073 35.9842 6.63826 35.6463 6.46788C35.315 6.2975 34.9241 6.21231 34.4868 6.21231H32.9827V10.2818H34.4868V10.2752Z" fill="white"/>
<path d="M38.6014 10.3866C38.3297 10.2359 38.1243 10.0262 37.9653 9.75099C37.8129 9.48231 37.7334 9.17432 37.7334 8.83355C37.7334 8.49279 37.8129 8.19135 37.9653 7.91612C38.1177 7.64745 38.3297 7.43775 38.6014 7.28047C38.873 7.12975 39.1712 7.05112 39.5025 7.05112C39.8337 7.05112 40.1385 7.12975 40.4036 7.28047C40.6752 7.4312 40.8806 7.64089 41.0396 7.91612C41.192 8.1848 41.2715 8.49279 41.2715 8.83355C41.2715 9.17432 41.192 9.47576 41.0396 9.75099C40.8872 10.0197 40.6752 10.2294 40.4036 10.3866C40.1319 10.5374 39.8337 10.616 39.5025 10.616C39.1712 10.6094 38.873 10.5374 38.6014 10.3866ZM40.2313 10.1245C40.4433 10 40.6156 9.82307 40.7415 9.60027C40.8674 9.37746 40.927 9.12189 40.927 8.83355C40.927 8.54522 40.8674 8.2962 40.7415 8.06684C40.6156 7.84404 40.4499 7.66711 40.2313 7.5426C40.0193 7.41809 39.7741 7.35256 39.5025 7.35256C39.2308 7.35256 38.9857 7.41809 38.7736 7.5426C38.5616 7.66711 38.3893 7.84404 38.2635 8.06684C38.1376 8.28965 38.0779 8.54522 38.0779 8.83355C38.0779 9.12189 38.1376 9.37091 38.2635 9.60027C38.3893 9.82307 38.555 10 38.7736 10.1245C38.9857 10.249 39.2308 10.3146 39.5025 10.3146C39.7741 10.308 40.0193 10.249 40.2313 10.1245Z" fill="white"/>
<path d="M47.2744 7.09045L45.936 10.5898H45.618L44.4253 7.55572L43.2261 10.5898H42.9147L41.5763 7.09045H41.901L43.0803 10.2097L44.2862 7.09045H44.5777L45.777 10.2032L46.9696 7.09045H47.2744Z" fill="white"/>
<path d="M50.839 7.4443C51.0974 7.69987 51.2233 8.06684 51.2233 8.54522V10.5898H50.8854V8.57143C50.8854 8.17825 50.786 7.87681 50.5872 7.67366C50.3885 7.47051 50.1035 7.36566 49.7458 7.36566C49.3283 7.36566 49.0037 7.49017 48.7652 7.73264C48.5266 7.9751 48.4074 8.30931 48.4074 8.72215V10.5832H48.0695V7.08388H48.3941V7.83749C48.5134 7.59502 48.6989 7.39843 48.9374 7.26082C49.1759 7.1232 49.4675 7.05112 49.7921 7.05112C50.2294 7.06422 50.5806 7.18873 50.839 7.4443Z" fill="white"/>
<path d="M52.6146 5.616H52.9525V10.5832H52.6146V5.616Z" fill="white"/>
<path d="M54.8608 10.3866C54.5891 10.2359 54.3837 10.0262 54.2247 9.75099C54.0723 9.48231 53.9928 9.17432 53.9928 8.83355C53.9928 8.49279 54.0723 8.19135 54.2247 7.91612C54.3771 7.64745 54.5891 7.43775 54.8608 7.28047C55.1324 7.12975 55.4306 7.05112 55.7619 7.05112C56.0931 7.05112 56.3979 7.12975 56.663 7.28047C56.9346 7.4312 57.14 7.64089 57.299 7.91612C57.4514 8.1848 57.5309 8.49279 57.5309 8.83355C57.5309 9.17432 57.4514 9.47576 57.299 9.75099C57.1466 10.0197 56.9346 10.2294 56.663 10.3866C56.3913 10.5374 56.0931 10.616 55.7619 10.616C55.4306 10.6094 55.1324 10.5374 54.8608 10.3866ZM56.4907 10.1245C56.7027 10 56.875 9.82307 57.0009 9.60027C57.1268 9.37746 57.1864 9.12189 57.1864 8.83355C57.1864 8.54522 57.1268 8.2962 57.0009 8.06684C56.875 7.84404 56.7093 7.66711 56.4907 7.5426C56.2787 7.41809 56.0335 7.35256 55.7619 7.35256C55.4902 7.35256 55.2451 7.41809 55.033 7.5426C54.821 7.66711 54.6487 7.84404 54.5229 8.06684C54.397 8.28965 54.3373 8.54522 54.3373 8.83355C54.3373 9.12189 54.397 9.37091 54.5229 9.60027C54.6487 9.82307 54.8144 10 55.033 10.1245C55.2451 10.249 55.4902 10.3146 55.7619 10.3146C56.0335 10.308 56.2787 10.249 56.4907 10.1245Z" fill="white"/>
<path d="M60.7709 7.39189C61.0028 7.61469 61.1221 7.93579 61.1221 8.36829V10.5832H60.7974V9.96069C60.6848 10.1638 60.5191 10.3277 60.3005 10.4391C60.0818 10.5505 59.8234 10.6094 59.5186 10.6094C59.1277 10.6094 58.8163 10.5177 58.5844 10.3342C58.3591 10.1507 58.2399 9.90827 58.2399 9.61338C58.2399 9.32504 58.3459 9.08913 58.5579 8.90565C58.7699 8.72216 59.1012 8.63697 59.565 8.63697H60.7775V8.35519C60.7775 8.02753 60.6914 7.77852 60.5125 7.61469C60.3336 7.44431 60.0752 7.35912 59.7307 7.35912C59.4988 7.35912 59.2735 7.39844 59.0548 7.47708C58.8428 7.55571 58.6573 7.66711 58.5115 7.79818L58.3393 7.55571C58.5181 7.39844 58.7302 7.28048 58.9753 7.18874C59.2205 7.10355 59.4855 7.05768 59.7572 7.05768C60.2011 7.06423 60.5324 7.17563 60.7709 7.39189ZM60.3203 10.1376C60.5257 10.0066 60.6781 9.80997 60.7841 9.5544V8.89909H59.5783C59.2337 8.89909 58.9819 8.96462 58.8229 9.08913C58.6639 9.21364 58.591 9.38402 58.591 9.60683C58.591 9.83618 58.6772 10.0131 58.8494 10.1442C59.0217 10.2752 59.2602 10.3408 59.5716 10.3408C59.8632 10.3408 60.1149 10.2687 60.3203 10.1376Z" fill="white"/>
<path d="M65.6674 5.616V10.5832H65.3361V9.7641C65.1969 10.0393 64.9982 10.249 64.7464 10.3932C64.4946 10.5374 64.2097 10.616 63.8851 10.616C63.5538 10.616 63.2556 10.5374 62.9906 10.3866C62.7256 10.2359 62.5135 10.0262 62.3611 9.75754C62.2087 9.48887 62.1359 9.18087 62.1359 8.84011C62.1359 8.49935 62.2087 8.19136 62.3611 7.91613C62.5135 7.64745 62.7189 7.43775 62.9906 7.28703C63.2556 7.13631 63.5538 7.06423 63.8851 7.06423C64.2031 7.06423 64.4814 7.13631 64.7331 7.28703C64.9849 7.4312 65.1837 7.6409 65.3228 7.90302V5.616H65.6674ZM64.6338 10.1245C64.8458 10 65.018 9.82307 65.1439 9.60027C65.2698 9.37747 65.3295 9.1219 65.3295 8.83356C65.3295 8.54522 65.2698 8.29621 65.1439 8.06685C65.018 7.84404 64.8524 7.66711 64.6338 7.5426C64.4217 7.41809 64.1766 7.35256 63.9049 7.35256C63.6333 7.35256 63.3881 7.41809 63.1761 7.5426C62.9641 7.66711 62.7918 7.84404 62.6659 8.06685C62.54 8.28965 62.4804 8.54522 62.4804 8.83356C62.4804 9.1219 62.54 9.37091 62.6659 9.60027C62.7918 9.82307 62.9575 10 63.1761 10.1245C63.3881 10.249 63.6333 10.3146 63.9049 10.3146C64.1766 10.308 64.4217 10.249 64.6338 10.1245Z" fill="white"/>
<path d="M69.3114 10.3866C69.0398 10.2359 68.8344 10.0262 68.6754 9.75099C68.523 9.48231 68.4435 9.17432 68.4435 8.83355C68.4435 8.49279 68.523 8.19135 68.6754 7.91612C68.8278 7.64745 69.0398 7.43775 69.3114 7.28047C69.5831 7.12975 69.8813 7.05112 70.2125 7.05112C70.5438 7.05112 70.8486 7.12975 71.1136 7.28047C71.3853 7.4312 71.5907 7.64089 71.7497 7.91612C71.9021 8.1848 71.9816 8.49279 71.9816 8.83355C71.9816 9.17432 71.9021 9.47576 71.7497 9.75099C71.5973 10.0197 71.3853 10.2294 71.1136 10.3866C70.842 10.5374 70.5438 10.616 70.2125 10.616C69.8813 10.6094 69.5831 10.5374 69.3114 10.3866ZM70.948 10.1245C71.16 10 71.3323 9.82307 71.4582 9.60027C71.5841 9.37746 71.6437 9.12189 71.6437 8.83355C71.6437 8.54522 71.5841 8.2962 71.4582 8.06684C71.3323 7.84404 71.1666 7.66711 70.948 7.5426C70.736 7.41809 70.4908 7.35256 70.2192 7.35256C69.9475 7.35256 69.7024 7.41809 69.4903 7.5426C69.2783 7.66711 69.1061 7.84404 68.9802 8.06684C68.8543 8.28965 68.7946 8.54522 68.7946 8.83355C68.7946 9.12189 68.8543 9.37091 68.9802 9.60027C69.1061 9.82307 69.2717 10 69.4903 10.1245C69.7024 10.249 69.9475 10.3146 70.2192 10.3146C70.4908 10.308 70.7294 10.249 70.948 10.1245Z" fill="white"/>
<path d="M75.8113 7.4443C76.0697 7.69987 76.1956 8.06684 76.1956 8.54522V10.5898H75.8577V8.57143C75.8577 8.17825 75.7583 7.87681 75.5595 7.67366C75.3607 7.47051 75.0758 7.36566 74.718 7.36566C74.3006 7.36566 73.976 7.49017 73.7374 7.73264C73.4989 7.9751 73.3797 8.30931 73.3797 8.72215V10.5832H73.0417V7.08388H73.3664V7.83749C73.4857 7.59502 73.6712 7.39843 73.9097 7.26082C74.1482 7.1232 74.4398 7.05112 74.7644 7.05112C75.2017 7.06422 75.5529 7.18873 75.8113 7.4443Z" fill="white"/>
<path d="M81.0853 10.367C80.9992 10.4456 80.8932 10.5111 80.7607 10.5505C80.6348 10.5898 80.4956 10.616 80.3565 10.616C80.0517 10.616 79.8132 10.5308 79.6476 10.367C79.4819 10.1966 79.3958 9.96724 79.3958 9.6658V7.37878H78.7465V7.09044H79.3958V6.32373H79.7337V7.09044H80.8601V7.37878H79.7337V9.62648C79.7337 9.85584 79.7867 10.0262 79.8993 10.1442C80.012 10.2621 80.171 10.3211 80.3896 10.3211C80.6083 10.3211 80.7938 10.2556 80.9396 10.1245L81.0853 10.367Z" fill="white"/>
<path d="M84.8024 7.44431C85.0608 7.69988 85.1867 8.06685 85.1867 8.54522V10.5898H84.8488V8.57144C84.8488 8.17825 84.7494 7.87681 84.5506 7.67366C84.3518 7.47052 84.0669 7.36567 83.7091 7.36567C83.2917 7.36567 82.9671 7.49018 82.7285 7.73264C82.49 7.97511 82.3707 8.30931 82.3707 8.72216V10.5832H82.0328V5.616H82.3707V7.81783C82.49 7.57537 82.6755 7.39188 82.9141 7.26082C83.1526 7.12976 83.4375 7.06423 83.7621 7.06423C84.1994 7.06423 84.544 7.18874 84.8024 7.44431Z" fill="white"/>
<path d="M89.5795 8.91875H86.5383C86.5449 9.19397 86.6178 9.43644 86.7503 9.64614C86.8828 9.85583 87.0617 10.0197 87.2804 10.1376C87.5056 10.2556 87.7574 10.3146 88.0357 10.3146C88.2676 10.3146 88.4796 10.2752 88.6784 10.19C88.8772 10.1049 89.0362 9.9869 89.1687 9.82307L89.3675 10.0459C89.2151 10.2294 89.0229 10.367 88.791 10.4653C88.5591 10.5636 88.3073 10.6094 88.0357 10.6094C87.6845 10.6094 87.3665 10.5308 87.0948 10.3801C86.8166 10.2294 86.6045 10.0197 86.4455 9.75099C86.2865 9.48231 86.2136 9.17432 86.2136 8.83355C86.2136 8.49279 86.2865 8.19135 86.4323 7.91612C86.578 7.64745 86.7834 7.43775 87.0352 7.28047C87.2936 7.12975 87.5785 7.05112 87.9032 7.05112C88.2212 7.05112 88.5127 7.1232 88.7645 7.27392C89.0163 7.42464 89.2217 7.63434 89.3675 7.90302C89.5132 8.17169 89.5861 8.47314 89.5861 8.8139L89.5795 8.91875ZM87.2274 7.52294C87.0286 7.63434 86.8696 7.78506 86.7503 7.98821C86.631 8.1848 86.5648 8.41416 86.5449 8.66317H89.2548C89.2416 8.41416 89.1753 8.19135 89.0494 7.99476C88.9302 7.79817 88.7645 7.64745 88.5657 7.52949C88.367 7.41809 88.1417 7.35911 87.8966 7.35911C87.6514 7.35911 87.4261 7.41154 87.2274 7.52294Z" fill="white"/>
<path d="M37.6538 20.9502H33.6055L32.8038 22.8047H31.2534L34.8976 14.7903H36.3817L40.0391 22.8047H38.4622L37.6538 20.9502ZM37.1569 19.7838L35.6264 16.2844L34.1091 19.7838H37.1569Z" fill="white"/>
<path d="M45.9692 17.0118C46.4462 17.2739 46.8173 17.6343 47.0889 18.1127C47.3606 18.5845 47.4931 19.1284 47.4931 19.751C47.4931 20.367 47.3606 20.9174 47.0889 21.3958C46.8173 21.8742 46.4462 22.2411 45.9692 22.5033C45.4921 22.7654 44.9554 22.8899 44.3525 22.8899C43.5177 22.8899 42.8617 22.6147 42.3714 22.0642V25.0262H40.927V16.6907H42.3051V17.4967C42.5437 17.2084 42.8418 16.9921 43.193 16.8414C43.5442 16.6972 43.9284 16.6252 44.3591 16.6252C44.9554 16.6252 45.4921 16.7562 45.9692 17.0118ZM45.5054 21.1337C45.8499 20.7798 46.0222 20.3211 46.0222 19.751C46.0222 19.1809 45.8499 18.7156 45.5054 18.3683C45.1608 18.0144 44.7235 17.844 44.1935 17.844C43.8489 17.844 43.5309 17.9227 43.2593 18.0799C42.981 18.2372 42.7623 18.46 42.5967 18.7484C42.4377 19.0367 42.3515 19.3709 42.3515 19.7575C42.3515 20.1376 42.431 20.4718 42.5967 20.7667C42.7557 21.055 42.981 21.2778 43.2593 21.4351C43.5375 21.5924 43.8489 21.671 44.1935 21.671C44.7235 21.6579 45.1608 21.4875 45.5054 21.1337Z" fill="white"/>
<path d="M53.9067 17.0118C54.3837 17.2739 54.7548 17.6343 55.0264 18.1127C55.2981 18.5845 55.4306 19.1284 55.4306 19.751C55.4306 20.367 55.2981 20.9174 55.0264 21.3958C54.7548 21.8742 54.3837 22.2411 53.9067 22.5033C53.4296 22.7654 52.8929 22.8899 52.29 22.8899C51.4552 22.8899 50.7992 22.6147 50.3089 22.0642V25.0262H48.8645V16.6907H50.2426V17.4967C50.4812 17.2084 50.7793 16.9921 51.1305 16.8414C51.4817 16.6972 51.8659 16.6252 52.2966 16.6252C52.8929 16.6252 53.4296 16.7562 53.9067 17.0118ZM53.4429 21.1337C53.7874 20.7798 53.9597 20.3211 53.9597 19.751C53.9597 19.1809 53.7874 18.7156 53.4429 18.3683C53.0983 18.0144 52.661 17.844 52.131 17.844C51.7864 17.844 51.4684 17.9227 51.1968 18.0799C50.9185 18.2372 50.6998 18.46 50.5342 18.7484C50.3752 19.0367 50.289 19.3709 50.289 19.7575C50.289 20.1376 50.3685 20.4718 50.5342 20.7667C50.6932 21.055 50.9185 21.2778 51.1968 21.4351C51.475 21.5924 51.7864 21.671 52.131 21.671C52.661 21.6579 53.0983 21.4875 53.4429 21.1337Z" fill="white"/>
<path d="M60.8372 22.654C60.2541 22.4771 59.7969 22.2477 59.4524 21.9528L59.9758 20.7995C60.3071 21.0616 60.7113 21.2713 61.195 21.4351C61.6786 21.599 62.1623 21.6841 62.646 21.6841C63.2489 21.6841 63.6995 21.5858 63.991 21.3958C64.2892 21.2058 64.4349 20.9502 64.4349 20.6422C64.4349 20.4128 64.3488 20.2228 64.1831 20.0786C64.0175 19.9279 63.8055 19.8165 63.5537 19.7313C63.3019 19.6461 62.9508 19.5544 62.5135 19.443C61.8973 19.2988 61.3937 19.1547 61.0161 19.0105C60.6318 18.8663 60.3071 18.637 60.0355 18.329C59.7638 18.021 59.6247 17.6016 59.6247 17.0773C59.6247 16.6317 59.7439 16.232 59.9891 15.8716C60.2342 15.5111 60.5986 15.2228 61.0889 15.0066C61.5792 14.7903 62.1756 14.6855 62.8911 14.6855C63.3881 14.6855 63.8717 14.7444 64.3488 14.8689C64.8258 14.9934 65.2366 15.1638 65.5878 15.3932L65.1107 16.5465C64.753 16.3434 64.3885 16.1861 63.9976 16.0747C63.6133 15.9699 63.2357 15.9174 62.8779 15.9174C62.2816 15.9174 61.8443 16.0157 61.5527 16.2123C61.2612 16.4089 61.1221 16.671 61.1221 17.0052C61.1221 17.2346 61.2016 17.4181 61.3738 17.5688C61.5395 17.713 61.7515 17.8309 62.0033 17.9096C62.2551 17.9948 62.6062 18.0865 63.0435 18.1979C63.6465 18.3355 64.1368 18.4797 64.5277 18.6239C64.912 18.7746 65.2433 18.9974 65.5149 19.3054C65.7866 19.6134 65.9257 20.0197 65.9257 20.5439C65.9257 20.9895 65.8064 21.3893 65.5613 21.7431C65.3161 22.1035 64.9517 22.3853 64.4548 22.6016C63.9579 22.8178 63.3616 22.9227 62.6526 22.9227C62.0232 22.9161 61.4202 22.8309 60.8372 22.654Z" fill="white"/>
<path d="M70.9944 22.4705C70.8222 22.6081 70.6168 22.713 70.3782 22.7785C70.1331 22.844 69.8813 22.8834 69.6096 22.8834C68.9338 22.8834 68.4038 22.7064 68.0327 22.3591C67.6617 22.0052 67.4762 21.4941 67.4762 20.8257V17.8834H66.4558V16.7366H67.4762V15.3408H68.9206V16.7366H70.577V17.8834H68.9206V20.7929C68.9206 21.0878 68.9935 21.3172 69.1392 21.4744C69.285 21.6317 69.497 21.7104 69.7753 21.7104C70.0999 21.7104 70.3716 21.6252 70.5836 21.4613L70.9944 22.4705Z" fill="white"/>
<path d="M73.0682 22.4836C72.5647 22.2149 72.1738 21.8414 71.8955 21.3696C71.6106 20.8912 71.4714 20.3539 71.4714 19.751C71.4714 19.1481 71.6106 18.6107 71.8955 18.1389C72.1738 17.6671 72.5713 17.2936 73.0682 17.0315C73.5718 16.7628 74.135 16.6317 74.7578 16.6317C75.3872 16.6317 75.957 16.7628 76.4606 17.0315C76.9641 17.3001 77.3551 17.6671 77.6333 18.1389C77.9116 18.6107 78.0574 19.1481 78.0574 19.751C78.0574 20.3539 77.9182 20.8912 77.6333 21.3696C77.3484 21.848 76.9575 22.2215 76.4606 22.4836C75.957 22.7523 75.3939 22.8834 74.7578 22.8834C74.1284 22.8834 73.5652 22.7523 73.0682 22.4836ZM76.0763 21.1337C76.4208 20.7798 76.5997 20.3211 76.5997 19.751C76.5997 19.1809 76.4275 18.7156 76.0763 18.3683C75.7318 18.0144 75.2878 17.844 74.7578 17.844C74.2277 17.844 73.7904 18.021 73.4459 18.3683C73.1014 18.7221 72.9291 19.1809 72.9291 19.751C72.9291 20.3211 73.1014 20.7864 73.4459 21.1337C73.7904 21.4875 74.2277 21.6579 74.7578 21.6579C75.2878 21.6579 75.7251 21.4875 76.0763 21.1337Z" fill="white"/>
<path d="M83.02 16.6252V17.9882C82.8941 17.9685 82.7815 17.9554 82.6821 17.9554C82.1189 17.9554 81.6816 18.1193 81.3636 18.4404C81.0456 18.768 80.8865 19.2333 80.8865 19.8427V22.8047H79.4421V16.6907H80.8203V17.5819C81.2377 16.9463 81.9665 16.6252 83.02 16.6252Z" fill="white"/>
<path d="M89.9705 20.2097H85.1205C85.2066 20.6619 85.4252 21.0157 85.783 21.2778C86.1408 21.54 86.5847 21.671 87.1214 21.671C87.7972 21.671 88.3604 21.4482 88.7977 21.0092L89.5796 21.8873C89.3013 22.2149 88.9501 22.464 88.5261 22.6343C88.102 22.8047 87.625 22.8834 87.0883 22.8834C86.4125 22.8834 85.8095 22.7523 85.2927 22.4836C84.7759 22.2149 84.3784 21.8414 84.0935 21.3696C83.8086 20.8912 83.6694 20.3539 83.6694 19.751C83.6694 19.1546 83.8086 18.6173 84.0802 18.1455C84.3519 17.6671 84.7362 17.2936 85.2198 17.0315C85.7035 16.7628 86.2535 16.6317 86.863 16.6317C87.466 16.6317 88.0026 16.7628 88.4797 17.0249C88.9567 17.287 89.3278 17.6605 89.5928 18.1324C89.8578 18.6107 89.9904 19.1612 89.9904 19.7837C89.997 19.882 89.9904 20.0262 89.9705 20.2097ZM85.6969 18.1717C85.3789 18.4404 85.1801 18.8008 85.1138 19.2529H88.6188C88.5592 18.8073 88.3671 18.4535 88.049 18.1782C87.731 17.903 87.3401 17.7654 86.8696 17.7654C86.4125 17.7654 86.0149 17.903 85.6969 18.1717Z" fill="white"/>
</g>
<defs>
<clipPath id="clip0_1275_13816">
<rect width="99.75" height="30" fill="white"/>
</clipPath>
</defs>
</svg>
