<svg width="100" height="30" viewBox="0 0 100 30" fill="none" xmlns="http://www.w3.org/2000/svg">
<g clip-path="url(#clip0_1235_15415)">
<path d="M95.8938 0.655308C97.6563 0.655308 99.0874 2.07077 99.0874 3.81389V26.1927C99.0874 27.9358 97.6563 29.3512 95.8938 29.3512H3.85616C2.09372 29.3512 0.662571 27.9358 0.662571 26.1927V3.81389C0.662571 2.07077 2.09372 0.655308 3.85616 0.655308H95.8938ZM95.8938 0H3.85616C1.72931 0 0 1.71035 0 3.81389V26.1927C0 28.2962 1.72931 30.0066 3.85616 30.0066H95.8938C98.0207 30.0066 99.75 28.2962 99.75 26.1927V3.81389C99.75 1.71035 98.0273 0 95.8938 0Z" fill="black"/>
<path d="M10.502 12.2608C8.88528 15.0393 9.91227 19.2529 11.7012 21.8087C12.5957 23.0865 13.4968 24.2333 14.7358 24.2333C14.7623 24.2333 14.7822 24.2333 14.8087 24.2333C15.3917 24.2136 15.8091 24.0301 16.2199 23.8598C16.6771 23.6697 17.1475 23.4666 17.8896 23.4666C18.5919 23.4666 19.0425 23.6566 19.4798 23.8467C19.9105 24.0301 20.3478 24.2202 21.0037 24.2071C22.4017 24.1809 23.2564 22.9423 24.0118 21.8545C24.8002 20.7143 25.1978 19.6068 25.3303 19.1874L25.3369 19.1678C25.3634 19.0957 25.3237 19.0105 25.2508 18.9777C25.2508 18.9777 25.2442 18.9712 25.2375 18.9712C24.9924 18.8729 22.839 17.9292 22.8125 15.3473C22.7926 13.2503 24.4292 12.1429 24.7605 11.9463L24.7737 11.9397C24.8069 11.9201 24.8334 11.8807 24.84 11.8414C24.8466 11.8021 24.84 11.7562 24.8135 11.7235C23.6805 10.0852 21.9512 9.84273 21.2555 9.80996C21.1561 9.79686 21.0501 9.79686 20.9441 9.79686C20.1225 9.79686 19.3406 10.1049 18.7112 10.3473C18.2739 10.5177 17.9029 10.6619 17.6378 10.6619C17.3463 10.6619 16.9686 10.5111 16.5313 10.3408C15.9483 10.1114 15.2791 9.84928 14.5768 9.84928C14.5569 9.84928 14.5436 9.84928 14.5304 9.84928C12.9005 9.86894 11.3567 10.7929 10.502 12.2608Z" fill="black"/>
<path d="M21.2556 5.30144C20.2683 5.34076 19.0823 5.94364 18.3734 6.76278C17.7704 7.45085 17.1807 8.60419 17.3398 9.76409C17.3464 9.83617 17.4126 9.89515 17.4855 9.9017C17.5518 9.90826 17.618 9.90826 17.6909 9.90826C18.6583 9.90826 19.6985 9.37746 20.4141 8.52556C21.1628 7.62779 21.5405 6.46789 21.4278 5.43906C21.4079 5.35387 21.3417 5.29489 21.2556 5.30144Z" fill="black"/>
<path d="M32.6387 5.89777H34.5137C35.0041 5.89777 35.4413 5.99607 35.8256 6.19921C36.2099 6.40236 36.5015 6.67759 36.7135 7.03145C36.9255 7.38532 37.0315 7.79161 37.0315 8.23722C37.0315 8.68938 36.9255 9.08912 36.7135 9.44299C36.5015 9.79685 36.2033 10.0786 35.8256 10.2752C35.4413 10.4784 35.0041 10.5767 34.5137 10.5767H32.6387V5.89777ZM34.4872 10.2752C34.9245 10.2752 35.3088 10.19 35.6467 10.0197C35.978 9.84928 36.2364 9.60681 36.422 9.29882C36.6008 8.99083 36.6936 8.63696 36.6936 8.24377C36.6936 7.84404 36.6008 7.49672 36.422 7.18873C36.2431 6.88073 35.9847 6.63827 35.6467 6.46789C35.3155 6.29751 34.9245 6.21232 34.4872 6.21232H32.9832V10.2818H34.4872V10.2752Z" fill="black"/>
<path d="M38.6014 10.3866C38.3297 10.2359 38.1243 10.0262 37.9653 9.75098C37.8129 9.48231 37.7334 9.17431 37.7334 8.83355C37.7334 8.49279 37.8129 8.19135 37.9653 7.91612C38.1177 7.64745 38.3297 7.43775 38.6014 7.28047C38.873 7.12975 39.1712 7.05112 39.5025 7.05112C39.8337 7.05112 40.1385 7.12975 40.4036 7.28047C40.6752 7.43119 40.8806 7.64089 41.0396 7.91612C41.192 8.1848 41.2715 8.49279 41.2715 8.83355C41.2715 9.17431 41.192 9.47575 41.0396 9.75098C40.8872 10.0197 40.6752 10.2294 40.4036 10.3866C40.1319 10.5374 39.8337 10.616 39.5025 10.616C39.1712 10.6094 38.873 10.5374 38.6014 10.3866ZM40.2313 10.1245C40.4433 10 40.6156 9.82307 40.7415 9.60026C40.8674 9.37746 40.927 9.12189 40.927 8.83355C40.927 8.54522 40.8674 8.2962 40.7415 8.06684C40.6156 7.84404 40.4499 7.6671 40.2313 7.5426C40.0193 7.41809 39.7741 7.35256 39.5025 7.35256C39.2308 7.35256 38.9857 7.41809 38.7736 7.5426C38.5616 7.6671 38.3893 7.84404 38.2635 8.06684C38.1376 8.28965 38.0779 8.54522 38.0779 8.83355C38.0779 9.12189 38.1376 9.37091 38.2635 9.60026C38.3893 9.82307 38.555 10 38.7736 10.1245C38.9857 10.249 39.2308 10.3145 39.5025 10.3145C39.7741 10.308 40.0193 10.249 40.2313 10.1245Z" fill="black"/>
<path d="M47.2753 7.09043L45.9369 10.5898H45.6188L44.4262 7.5557L43.227 10.5898H42.9155L41.5771 7.09043H41.9018L43.0812 10.2097L44.2871 7.09043H44.5786L45.7778 10.2031L46.9705 7.09043H47.2753Z" fill="black"/>
<path d="M50.8399 7.4443C51.0983 7.69987 51.2241 8.06684 51.2241 8.54522V10.5898H50.8862V8.57143C50.8862 8.17825 50.7869 7.8768 50.5881 7.67366C50.3893 7.47051 50.1044 7.36566 49.7466 7.36566C49.3292 7.36566 49.0045 7.49017 48.766 7.73264C48.5275 7.9751 48.4082 8.30931 48.4082 8.72215V10.5832H48.0703V7.08388H48.395V7.83748C48.5142 7.59502 48.6998 7.39843 48.9383 7.26081C49.1768 7.1232 49.4683 7.05112 49.793 7.05112C50.2303 7.06422 50.5815 7.18873 50.8399 7.4443Z" fill="black"/>
<path d="M52.6152 5.61599H52.9531V10.5832H52.6152V5.61599Z" fill="black"/>
<path d="M54.8611 10.3866C54.5895 10.2359 54.3841 10.0262 54.2251 9.75098C54.0727 9.48231 53.9932 9.17431 53.9932 8.83355C53.9932 8.49279 54.0727 8.19135 54.2251 7.91612C54.3775 7.64745 54.5895 7.43775 54.8611 7.28047C55.1328 7.12975 55.4309 7.05112 55.7622 7.05112C56.0935 7.05112 56.3983 7.12975 56.6633 7.28047C56.935 7.43119 57.1404 7.64089 57.2994 7.91612C57.4518 8.1848 57.5313 8.49279 57.5313 8.83355C57.5313 9.17431 57.4518 9.47575 57.2994 9.75098C57.147 10.0197 56.935 10.2294 56.6633 10.3866C56.3917 10.5374 56.0935 10.616 55.7622 10.616C55.4309 10.6094 55.1328 10.5374 54.8611 10.3866ZM56.4911 10.1245C56.7031 10 56.8753 9.82307 57.0012 9.60026C57.1271 9.37746 57.1868 9.12189 57.1868 8.83355C57.1868 8.54522 57.1271 8.2962 57.0012 8.06684C56.8753 7.84404 56.7097 7.6671 56.4911 7.5426C56.279 7.41809 56.0339 7.35256 55.7622 7.35256C55.4906 7.35256 55.2454 7.41809 55.0334 7.5426C54.8214 7.6671 54.6491 7.84404 54.5232 8.06684C54.3973 8.28965 54.3377 8.54522 54.3377 8.83355C54.3377 9.12189 54.3973 9.37091 54.5232 9.60026C54.6491 9.82307 54.8147 10 55.0334 10.1245C55.2454 10.249 55.4906 10.3145 55.7622 10.3145C56.0339 10.308 56.279 10.249 56.4911 10.1245Z" fill="black"/>
<path d="M60.7713 7.39187C61.0032 7.61468 61.1224 7.93578 61.1224 8.36828V10.5832H60.7978V9.96068C60.6851 10.1638 60.5195 10.3277 60.3008 10.4391C60.0822 10.5505 59.8238 10.6094 59.519 10.6094C59.1281 10.6094 58.8167 10.5177 58.5848 10.3342C58.3595 10.1507 58.2402 9.90826 58.2402 9.61337C58.2402 9.32503 58.3462 9.08912 58.5583 8.90564C58.7703 8.72215 59.1016 8.63696 59.5654 8.63696H60.7779V8.35518C60.7779 8.02752 60.6917 7.77851 60.5129 7.61468C60.334 7.4443 60.0756 7.35911 59.731 7.35911C59.4991 7.35911 59.2738 7.39843 59.0552 7.47706C58.8432 7.5557 58.6577 7.6671 58.5119 7.79817L58.3396 7.5557C58.5185 7.39843 58.7305 7.28047 58.9757 7.18873C59.2208 7.10354 59.4859 7.05767 59.7575 7.05767C60.2014 7.06422 60.5327 7.17562 60.7713 7.39187ZM60.3207 10.1376C60.5261 10.0066 60.6785 9.80996 60.7845 9.55439V8.89908H59.5786C59.2341 8.89908 58.9823 8.96461 58.8233 9.08912C58.6643 9.21363 58.5914 9.38401 58.5914 9.60682C58.5914 9.83617 58.6775 10.0131 58.8498 10.1442C59.0221 10.2752 59.2606 10.3408 59.572 10.3408C59.8635 10.3408 60.1153 10.2687 60.3207 10.1376Z" fill="black"/>
<path d="M65.6682 5.61599V10.5832H65.3369V9.76409C65.1978 10.0393 64.999 10.249 64.7472 10.3932C64.4955 10.5374 64.2106 10.616 63.8859 10.616C63.5546 10.616 63.2565 10.5374 62.9914 10.3866C62.7264 10.2359 62.5144 10.0262 62.362 9.75754C62.2096 9.48886 62.1367 9.18087 62.1367 8.8401C62.1367 8.49934 62.2096 8.19135 62.362 7.91612C62.5144 7.64744 62.7198 7.43775 62.9914 7.28703C63.2565 7.1363 63.5546 7.06422 63.8859 7.06422C64.2039 7.06422 64.4822 7.1363 64.734 7.28703C64.9858 7.43119 65.1845 7.64089 65.3237 7.90301V5.61599H65.6682ZM64.6346 10.1245C64.8466 10 65.0189 9.82307 65.1448 9.60026C65.2707 9.37746 65.3303 9.12189 65.3303 8.83355C65.3303 8.54522 65.2707 8.2962 65.1448 8.06684C65.0189 7.84404 64.8533 7.6671 64.6346 7.5426C64.4226 7.41809 64.1774 7.35256 63.9058 7.35256C63.6341 7.35256 63.389 7.41809 63.177 7.5426C62.9649 7.6671 62.7927 7.84404 62.6668 8.06684C62.5409 8.28965 62.4813 8.54522 62.4813 8.83355C62.4813 9.12189 62.5409 9.3709 62.6668 9.60026C62.7927 9.82307 62.9583 10 63.177 10.1245C63.389 10.249 63.6341 10.3145 63.9058 10.3145C64.1774 10.308 64.4226 10.249 64.6346 10.1245Z" fill="black"/>
<path d="M69.3123 10.3866C69.0406 10.2359 68.8353 10.0262 68.6762 9.75098C68.5238 9.48231 68.4443 9.17431 68.4443 8.83355C68.4443 8.49279 68.5238 8.19135 68.6762 7.91612C68.8286 7.64745 69.0406 7.43775 69.3123 7.28047C69.584 7.12975 69.8821 7.05112 70.2134 7.05112C70.5447 7.05112 70.8495 7.12975 71.1145 7.28047C71.3862 7.43119 71.5915 7.64089 71.7506 7.91612C71.903 8.1848 71.9825 8.49279 71.9825 8.83355C71.9825 9.17431 71.903 9.47575 71.7506 9.75098C71.5982 10.0197 71.3862 10.2294 71.1145 10.3866C70.8428 10.5374 70.5447 10.616 70.2134 10.616C69.8821 10.6094 69.584 10.5374 69.3123 10.3866ZM70.9489 10.1245C71.1609 10 71.3331 9.82307 71.459 9.60026C71.5849 9.37746 71.6446 9.12189 71.6446 8.83355C71.6446 8.54522 71.5849 8.2962 71.459 8.06684C71.3331 7.84404 71.1675 7.6671 70.9489 7.5426C70.7368 7.41809 70.4917 7.35256 70.22 7.35256C69.9484 7.35256 69.7032 7.41809 69.4912 7.5426C69.2792 7.6671 69.1069 7.84404 68.981 8.06684C68.8551 8.28965 68.7955 8.54522 68.7955 8.83355C68.7955 9.12189 68.8551 9.37091 68.981 9.60026C69.1069 9.82307 69.2726 10 69.4912 10.1245C69.7032 10.249 69.9484 10.3145 70.22 10.3145C70.4917 10.308 70.7302 10.249 70.9489 10.1245Z" fill="black"/>
<path d="M75.8115 7.4443C76.0699 7.69987 76.1958 8.06684 76.1958 8.54522V10.5898H75.8579V8.57143C75.8579 8.17825 75.7585 7.8768 75.5598 7.67366C75.361 7.47051 75.0761 7.36566 74.7183 7.36566C74.3009 7.36566 73.9762 7.49017 73.7377 7.73264C73.4992 7.9751 73.3799 8.30931 73.3799 8.72215V10.5832H73.042V7.08388H73.3667V7.83748C73.4859 7.59502 73.6714 7.39843 73.91 7.26081C74.1485 7.1232 74.44 7.05112 74.7647 7.05112C75.202 7.06422 75.5531 7.18873 75.8115 7.4443Z" fill="black"/>
<path d="M81.0859 10.367C80.9998 10.4456 80.8938 10.5111 80.7613 10.5505C80.6354 10.5898 80.4963 10.616 80.3571 10.616C80.0523 10.616 79.8138 10.5308 79.6482 10.367C79.4825 10.1966 79.3964 9.96724 79.3964 9.66579V7.37877H78.7471V7.09043H79.3964V6.32372H79.7343V7.09043H80.8607V7.37877H79.7343V9.62648C79.7343 9.85583 79.7873 10.0262 79.8999 10.1442C80.0126 10.2621 80.1716 10.3211 80.3902 10.3211C80.6089 10.3211 80.7944 10.2556 80.9402 10.1245L81.0859 10.367Z" fill="black"/>
<path d="M84.8028 7.4443C85.0612 7.69987 85.187 8.06684 85.187 8.54522V10.5898H84.8491V8.57143C84.8491 8.17824 84.7497 7.8768 84.551 7.67366C84.3522 7.47051 84.0673 7.36566 83.7095 7.36566C83.2921 7.36566 82.9674 7.49017 82.7289 7.73264C82.4904 7.9751 82.3711 8.30931 82.3711 8.72215V10.5832H82.0332V5.61599H82.3711V7.81783C82.4904 7.57536 82.6759 7.39187 82.9144 7.26081C83.153 7.12975 83.4379 7.06422 83.7625 7.06422C84.1998 7.06422 84.5443 7.18873 84.8028 7.4443Z" fill="black"/>
<path d="M89.5797 8.91874H86.5385C86.5452 9.19397 86.618 9.43644 86.7506 9.64613C86.8831 9.85583 87.062 10.0197 87.2806 10.1376C87.5059 10.2556 87.7577 10.3145 88.0359 10.3145C88.2678 10.3145 88.4799 10.2752 88.6786 10.19C88.8774 10.1049 89.0364 9.98689 89.1689 9.82307L89.3677 10.0459C89.2153 10.2294 89.0232 10.367 88.7913 10.4653C88.5594 10.5636 88.3076 10.6094 88.0359 10.6094C87.6848 10.6094 87.3667 10.5308 87.0951 10.3801C86.8168 10.2294 86.6048 10.0197 86.4458 9.75098C86.2867 9.48231 86.2139 9.17431 86.2139 8.83355C86.2139 8.49279 86.2868 8.19135 86.4325 7.91612C86.5783 7.64745 86.7837 7.43775 87.0355 7.28047C87.2939 7.12975 87.5788 7.05112 87.9034 7.05112C88.2215 7.05112 88.513 7.1232 88.7648 7.27392C89.0165 7.42464 89.2219 7.63434 89.3677 7.90302C89.5135 8.17169 89.5864 8.47313 89.5864 8.81389L89.5797 8.91874ZM87.2276 7.52294C87.0288 7.63434 86.8698 7.78506 86.7506 7.98821C86.6313 8.1848 86.565 8.41416 86.5452 8.66317H89.2551C89.2418 8.41416 89.1756 8.19135 89.0497 7.99476C88.9304 7.79817 88.7648 7.64745 88.566 7.52949C88.3672 7.41809 88.1419 7.35911 87.8968 7.35911C87.6516 7.35911 87.4264 7.41153 87.2276 7.52294Z" fill="black"/>
<path d="M37.6543 20.9502H33.606L32.8043 22.8047H31.2539L34.898 14.7903H36.3822L40.0396 22.8047H38.4627L37.6543 20.9502ZM37.1574 19.7837L35.6269 16.2844L34.1096 19.7837H37.1574Z" fill="black"/>
<path d="M45.9699 17.0118C46.4469 17.2739 46.818 17.6343 47.0896 18.1127C47.3613 18.5845 47.4938 19.1284 47.4938 19.751C47.4938 20.367 47.3613 20.9174 47.0896 21.3958C46.818 21.8742 46.4469 22.2412 45.9699 22.5033C45.4928 22.7654 44.9562 22.8899 44.3532 22.8899C43.5184 22.8899 42.8624 22.6147 42.3721 22.0642V25.0262H40.9277V16.6907H42.3059V17.4967C42.5444 17.2084 42.8426 16.9921 43.1937 16.8414C43.5449 16.6972 43.9292 16.6252 44.3598 16.6252C44.9562 16.6252 45.4928 16.7562 45.9699 17.0118ZM45.5061 21.1337C45.8506 20.7798 46.0229 20.3211 46.0229 19.751C46.0229 19.1809 45.8506 18.7156 45.5061 18.3683C45.1616 18.0144 44.7243 17.844 44.1942 17.844C43.8497 17.844 43.5316 17.9227 43.26 18.0799C42.9817 18.2372 42.7631 18.46 42.5974 18.7484C42.4384 19.0367 42.3523 19.3709 42.3523 19.7575C42.3523 20.1376 42.4318 20.4718 42.5974 20.7667C42.7564 21.055 42.9817 21.2779 43.26 21.4351C43.5383 21.5924 43.8497 21.671 44.1942 21.671C44.7243 21.6579 45.1616 21.4875 45.5061 21.1337Z" fill="black"/>
<path d="M53.9074 17.0118C54.3844 17.2739 54.7555 17.6343 55.0271 18.1127C55.2988 18.5845 55.4313 19.1284 55.4313 19.751C55.4313 20.367 55.2988 20.9174 55.0271 21.3958C54.7555 21.8742 54.3844 22.2412 53.9074 22.5033C53.4303 22.7654 52.8937 22.8899 52.2907 22.8899C51.4559 22.8899 50.7999 22.6147 50.3096 22.0642V25.0262H48.8652V16.6907H50.2434V17.4967C50.4819 17.2084 50.7801 16.9921 51.1312 16.8414C51.4824 16.6972 51.8667 16.6252 52.2973 16.6252C52.8937 16.6252 53.4303 16.7562 53.9074 17.0118ZM53.4436 21.1337C53.7881 20.7798 53.9604 20.3211 53.9604 19.751C53.9604 19.1809 53.7881 18.7156 53.4436 18.3683C53.0991 18.0144 52.6618 17.844 52.1317 17.844C51.7872 17.844 51.4691 17.9227 51.1975 18.0799C50.9192 18.2372 50.7006 18.46 50.5349 18.7484C50.3759 19.0367 50.2898 19.3709 50.2898 19.7575C50.2898 20.1376 50.3693 20.4718 50.5349 20.7667C50.6939 21.055 50.9192 21.2779 51.1975 21.4351C51.4758 21.5924 51.7872 21.671 52.1317 21.671C52.6618 21.6579 53.0991 21.4875 53.4436 21.1337Z" fill="black"/>
<path d="M60.8379 22.654C60.2548 22.4771 59.7977 22.2477 59.4531 21.9528L59.9766 20.7995C60.3078 21.0616 60.712 21.2713 61.1957 21.4351C61.6794 21.599 62.163 21.6841 62.6467 21.6841C63.2497 21.6841 63.7002 21.5858 63.9917 21.3958C64.2899 21.2058 64.4357 20.9502 64.4357 20.6422C64.4357 20.4128 64.3495 20.2228 64.1839 20.0786C64.0182 19.9279 63.8062 19.8165 63.5544 19.7313C63.3027 19.6461 62.9515 19.5544 62.5142 19.443C61.898 19.2988 61.3945 19.1547 61.0168 19.0105C60.6325 18.8663 60.3078 18.637 60.0362 18.329C59.7645 18.021 59.6254 17.6016 59.6254 17.0773C59.6254 16.6317 59.7447 16.232 59.9898 15.8716C60.235 15.5111 60.5994 15.2228 61.0897 15.0066C61.58 14.7903 62.1763 14.6855 62.8919 14.6855C63.3888 14.6855 63.8725 14.7444 64.3495 14.8689C64.8266 14.9934 65.2374 15.1638 65.5885 15.3932L65.1115 16.5465C64.7537 16.3434 64.3893 16.1861 63.9984 16.0747C63.6141 15.9699 63.2364 15.9174 62.8786 15.9174C62.2823 15.9174 61.845 16.0157 61.5535 16.2123C61.2619 16.4089 61.1228 16.671 61.1228 17.0052C61.1228 17.2346 61.2023 17.4181 61.3746 17.5688C61.5402 17.713 61.7522 17.8309 62.004 17.9096C62.2558 17.9948 62.607 18.0865 63.0443 18.1979C63.6472 18.3355 64.1375 18.4797 64.5284 18.6239C64.9127 18.7746 65.244 18.9974 65.5156 19.3054C65.7873 19.6134 65.9264 20.0197 65.9264 20.5439C65.9264 20.9895 65.8072 21.3893 65.562 21.7431C65.3169 22.1035 64.9525 22.3853 64.4555 22.6016C63.9586 22.8178 63.3623 22.9227 62.6533 22.9227C62.0239 22.9161 61.421 22.8309 60.8379 22.654Z" fill="black"/>
<path d="M70.9947 22.4705C70.8224 22.6081 70.617 22.713 70.3785 22.7785C70.1333 22.844 69.8815 22.8834 69.6099 22.8834C68.9341 22.8834 68.404 22.7064 68.033 22.3591C67.6619 22.0052 67.4764 21.4941 67.4764 20.8257V17.8834H66.4561V16.7366H67.4764V15.3408H68.9208V16.7366H70.5772V17.8834H68.9208V20.7929C68.9208 21.0878 68.9937 21.3172 69.1395 21.4744C69.2852 21.6317 69.4973 21.7104 69.7755 21.7104C70.1002 21.7104 70.3719 21.6252 70.5839 21.4613L70.9947 22.4705Z" fill="black"/>
<path d="M73.0685 22.4836C72.5649 22.2149 72.174 21.8414 71.8957 21.3696C71.6108 20.8912 71.4717 20.3539 71.4717 19.751C71.4717 19.1481 71.6108 18.6107 71.8957 18.1389C72.174 17.6671 72.5716 17.2936 73.0685 17.0315C73.572 16.7628 74.1352 16.6317 74.758 16.6317C75.3875 16.6317 75.9573 16.7628 76.4608 17.0315C76.9644 17.3001 77.3553 17.6671 77.6336 18.1389C77.9119 18.6107 78.0576 19.1481 78.0576 19.751C78.0576 20.3539 77.9185 20.8912 77.6336 21.3696C77.3487 21.848 76.9578 22.2215 76.4608 22.4836C75.9573 22.7523 75.3941 22.8834 74.758 22.8834C74.1286 22.8834 73.5654 22.7523 73.0685 22.4836ZM76.0765 21.1337C76.4211 20.7798 76.6 20.3211 76.6 19.751C76.6 19.1809 76.4277 18.7156 76.0765 18.3683C75.732 18.0144 75.2881 17.844 74.758 17.844C74.228 17.844 73.7907 18.021 73.4461 18.3683C73.1016 18.7221 72.9293 19.1809 72.9293 19.751C72.9293 20.3211 73.1016 20.7864 73.4461 21.1337C73.7907 21.4875 74.228 21.6579 74.758 21.6579C75.2881 21.6579 75.7254 21.4875 76.0765 21.1337Z" fill="black"/>
<path d="M83.0203 16.6252V17.9882C82.8944 17.9685 82.7817 17.9554 82.6824 17.9554C82.1192 17.9554 81.6819 18.1193 81.3638 18.4404C81.0458 18.768 80.8868 19.2333 80.8868 19.8427V22.8047H79.4424V16.6907H80.8205V17.5819C81.238 16.9463 81.9668 16.6252 83.0203 16.6252Z" fill="black"/>
<path d="M89.971 20.2097H85.1209C85.2071 20.6619 85.4257 21.0157 85.7835 21.2779C86.1413 21.54 86.5852 21.671 87.1219 21.671C87.7977 21.671 88.3609 21.4482 88.7982 21.0092L89.58 21.8873C89.3018 22.2149 88.9506 22.464 88.5266 22.6343C88.1025 22.8047 87.6255 22.8834 87.0888 22.8834C86.413 22.8834 85.81 22.7523 85.2932 22.4836C84.7764 22.2149 84.3789 21.8414 84.094 21.3696C83.8091 20.8912 83.6699 20.3539 83.6699 19.751C83.6699 19.1547 83.8091 18.6173 84.0807 18.1455C84.3524 17.6671 84.7367 17.2936 85.2203 17.0315C85.704 16.7628 86.2539 16.6317 86.8635 16.6317C87.4664 16.6317 88.0031 16.7628 88.4802 17.0249C88.9572 17.287 89.3283 17.6606 89.5933 18.1324C89.8583 18.6107 89.9908 19.1612 89.9908 19.7837C89.9975 19.882 89.9908 20.0262 89.971 20.2097ZM85.6974 18.1717C85.3794 18.4404 85.1806 18.8008 85.1143 19.2529H88.6193C88.5597 18.8073 88.3675 18.4535 88.0495 18.1782C87.7315 17.903 87.3406 17.7654 86.8701 17.7654C86.413 17.7654 86.0154 17.903 85.6974 18.1717Z" fill="black"/>
</g>
<defs>
<clipPath id="clip0_1235_15415">
<rect width="99.75" height="30" fill="white"/>
</clipPath>
</defs>
</svg>
