<svg width="10" height="6" viewBox="0 0 10 6" fill="none" xmlns="http://www.w3.org/2000/svg">
<path d="M5 5.15039C5.08464 5.15039 5.16439 5.13411 5.23926 5.10156C5.31413 5.06901 5.38249 5.02018 5.44434 4.95508L9.16016 1.15137C9.27083 1.04069 9.32617 0.908854 9.32617 0.755859C9.32617 0.648438 9.30013 0.550781 9.24805 0.462891C9.19922 0.375 9.13249 0.306641 9.04785 0.257812C8.96322 0.205729 8.86719 0.179688 8.75977 0.179688C8.60352 0.179688 8.4668 0.238281 8.34961 0.355469L4.76562 4.03223H5.23926L1.65039 0.355469C1.5332 0.238281 1.39648 0.179688 1.24023 0.179688C1.13281 0.179688 1.03678 0.205729 0.952148 0.257812C0.867513 0.306641 0.799154 0.375 0.74707 0.462891C0.698242 0.550781 0.673828 0.648438 0.673828 0.755859C0.673828 0.833984 0.686849 0.907227 0.712891 0.975586C0.742188 1.04069 0.784505 1.09928 0.839844 1.15137L4.55566 4.95508C4.68913 5.08529 4.83724 5.15039 5 5.15039Z" fill="#0C4BDB"/>
</svg>
