<svg width="16" height="20" viewBox="0 0 16 20" fill="none" xmlns="http://www.w3.org/2000/svg">
<path d="M1.5 20C1.1 20 0.75 19.85 0.45 19.55C0.15 19.25 0 18.9 0 18.5V5.5C0 5.1 0.15 4.75 0.45 4.45C0.75 4.15 1.1 4 1.5 4H4.25V3.75C4.25 2.7 4.6125 1.8125 5.3375 1.0875C6.0625 0.3625 6.95 0 8 0C9.05 0 9.9375 0.3625 10.6625 1.0875C11.3875 1.8125 11.75 2.7 11.75 3.75V4H14.5C14.9 4 15.25 4.15 15.55 4.45C15.85 4.75 16 5.1 16 5.5V18.5C16 18.9 15.85 19.25 15.55 19.55C15.25 19.85 14.9 20 14.5 20H1.5ZM5.75 3.75V4H10.25V3.75C10.25 3.11667 10.0333 2.58333 9.6 2.15C9.16667 1.71667 8.63333 1.5 8 1.5C7.36667 1.5 6.83333 1.71667 6.4 2.15C5.96667 2.58333 5.75 3.11667 5.75 3.75ZM1.5 18.5H14.5V5.5H11.75V7.75C11.75 7.96667 11.6792 8.14583 11.5375 8.2875C11.3958 8.42917 11.2167 8.5 11 8.5C10.7833 8.5 10.6042 8.42917 10.4625 8.2875C10.3208 8.14583 10.25 7.96667 10.25 7.75V5.5H5.75V7.75C5.75 7.96667 5.67917 8.14583 5.5375 8.2875C5.39583 8.42917 5.21667 8.5 5 8.5C4.78333 8.5 4.60417 8.42917 4.4625 8.2875C4.32083 8.14583 4.25 7.96667 4.25 7.75V5.5H1.5V18.5ZM1.5 18.5V5.5V18.5Z" fill="white"/>
</svg>
