<svg width="14" height="14" viewBox="0 0 14 14" fill="none" xmlns="http://www.w3.org/2000/svg">
<path d="M2.24219 13.2646H11.7578C12.4277 13.2646 12.929 13.096 13.2617 12.7588C13.599 12.4215 13.7676 11.9248 13.7676 11.2686V2.8877C13.7676 2.22689 13.599 1.73014 13.2617 1.39746C12.929 1.06022 12.4277 0.891602 11.7578 0.891602H2.24219C1.57682 0.891602 1.07552 1.06022 0.738281 1.39746C0.401042 1.73014 0.232422 2.22689 0.232422 2.8877V11.2686C0.232422 11.9294 0.401042 12.4261 0.738281 12.7588C1.07552 13.096 1.57682 13.2646 2.24219 13.2646ZM2.1875 12.4238C1.82747 12.4238 1.55176 12.3281 1.36035 12.1367C1.16895 11.9499 1.07324 11.6719 1.07324 11.3027V5.04785C1.07324 4.67871 1.16895 4.40072 1.36035 4.21387C1.55176 4.02246 1.82747 3.92676 2.1875 3.92676H11.8125C12.168 3.92676 12.4414 4.02246 12.6328 4.21387C12.8288 4.40072 12.9268 4.67871 12.9268 5.04785V11.3027C12.9268 11.6719 12.8288 11.9499 12.6328 12.1367C12.4414 12.3281 12.168 12.4238 11.8125 12.4238H2.1875ZM5.64648 6.36035H6.0498C6.15462 6.36035 6.22526 6.34212 6.26172 6.30566C6.30273 6.26921 6.32324 6.19857 6.32324 6.09375V5.69043C6.32324 5.58561 6.30273 5.51725 6.26172 5.48535C6.22526 5.44889 6.15462 5.43066 6.0498 5.43066H5.64648C5.54167 5.43066 5.46875 5.44889 5.42773 5.48535C5.39128 5.51725 5.37305 5.58561 5.37305 5.69043V6.09375C5.37305 6.19857 5.39128 6.26921 5.42773 6.30566C5.46875 6.34212 5.54167 6.36035 5.64648 6.36035ZM7.96387 6.36035H8.36719C8.47656 6.36035 8.54948 6.34212 8.58594 6.30566C8.6224 6.26921 8.64062 6.19857 8.64062 6.09375V5.69043C8.64062 5.58561 8.6224 5.51725 8.58594 5.48535C8.54948 5.44889 8.47656 5.43066 8.36719 5.43066H7.96387C7.85905 5.43066 7.78841 5.44889 7.75195 5.48535C7.71549 5.51725 7.69727 5.58561 7.69727 5.69043V6.09375C7.69727 6.19857 7.71549 6.26921 7.75195 6.30566C7.78841 6.34212 7.85905 6.36035 7.96387 6.36035ZM10.2881 6.36035H10.6846C10.7939 6.36035 10.8669 6.34212 10.9033 6.30566C10.9398 6.26921 10.958 6.19857 10.958 6.09375V5.69043C10.958 5.58561 10.9398 5.51725 10.9033 5.48535C10.8669 5.44889 10.7939 5.43066 10.6846 5.43066H10.2881C10.1787 5.43066 10.1058 5.44889 10.0693 5.48535C10.0329 5.51725 10.0146 5.58561 10.0146 5.69043V6.09375C10.0146 6.19857 10.0329 6.26921 10.0693 6.30566C10.1058 6.34212 10.1787 6.36035 10.2881 6.36035ZM3.3291 8.64355H3.73242C3.83724 8.64355 3.90788 8.62533 3.94434 8.58887C3.98079 8.55241 3.99902 8.48177 3.99902 8.37695V7.98047C3.99902 7.87109 3.98079 7.80046 3.94434 7.76855C3.90788 7.7321 3.83724 7.71387 3.73242 7.71387H3.3291C3.21973 7.71387 3.14681 7.7321 3.11035 7.76855C3.07389 7.80046 3.05566 7.87109 3.05566 7.98047V8.37695C3.05566 8.48177 3.07389 8.55241 3.11035 8.58887C3.14681 8.62533 3.21973 8.64355 3.3291 8.64355ZM5.64648 8.64355H6.0498C6.15462 8.64355 6.22526 8.62533 6.26172 8.58887C6.30273 8.55241 6.32324 8.48177 6.32324 8.37695V7.98047C6.32324 7.87109 6.30273 7.80046 6.26172 7.76855C6.22526 7.7321 6.15462 7.71387 6.0498 7.71387H5.64648C5.54167 7.71387 5.46875 7.7321 5.42773 7.76855C5.39128 7.80046 5.37305 7.87109 5.37305 7.98047V8.37695C5.37305 8.48177 5.39128 8.55241 5.42773 8.58887C5.46875 8.62533 5.54167 8.64355 5.64648 8.64355ZM7.96387 8.64355H8.36719C8.47656 8.64355 8.54948 8.62533 8.58594 8.58887C8.6224 8.55241 8.64062 8.48177 8.64062 8.37695V7.98047C8.64062 7.87109 8.6224 7.80046 8.58594 7.76855C8.54948 7.7321 8.47656 7.71387 8.36719 7.71387H7.96387C7.85905 7.71387 7.78841 7.7321 7.75195 7.76855C7.71549 7.80046 7.69727 7.87109 7.69727 7.98047V8.37695C7.69727 8.48177 7.71549 8.55241 7.75195 8.58887C7.78841 8.62533 7.85905 8.64355 7.96387 8.64355ZM10.2881 8.64355H10.6846C10.7939 8.64355 10.8669 8.62533 10.9033 8.58887C10.9398 8.55241 10.958 8.48177 10.958 8.37695V7.98047C10.958 7.87109 10.9398 7.80046 10.9033 7.76855C10.8669 7.7321 10.7939 7.71387 10.6846 7.71387H10.2881C10.1787 7.71387 10.1058 7.7321 10.0693 7.76855C10.0329 7.80046 10.0146 7.87109 10.0146 7.98047V8.37695C10.0146 8.48177 10.0329 8.55241 10.0693 8.58887C10.1058 8.62533 10.1787 8.64355 10.2881 8.64355ZM3.3291 10.9268H3.73242C3.83724 10.9268 3.90788 10.9108 3.94434 10.8789C3.98079 10.8424 3.99902 10.7695 3.99902 10.6602V10.2637C3.99902 10.1543 3.98079 10.0837 3.94434 10.0518C3.90788 10.0153 3.83724 9.99707 3.73242 9.99707H3.3291C3.21973 9.99707 3.14681 10.0153 3.11035 10.0518C3.07389 10.0837 3.05566 10.1543 3.05566 10.2637V10.6602C3.05566 10.7695 3.07389 10.8424 3.11035 10.8789C3.14681 10.9108 3.21973 10.9268 3.3291 10.9268ZM5.64648 10.9268H6.0498C6.15462 10.9268 6.22526 10.9108 6.26172 10.8789C6.30273 10.8424 6.32324 10.7695 6.32324 10.6602V10.2637C6.32324 10.1543 6.30273 10.0837 6.26172 10.0518C6.22526 10.0153 6.15462 9.99707 6.0498 9.99707H5.64648C5.54167 9.99707 5.46875 10.0153 5.42773 10.0518C5.39128 10.0837 5.37305 10.1543 5.37305 10.2637V10.6602C5.37305 10.7695 5.39128 10.8424 5.42773 10.8789C5.46875 10.9108 5.54167 10.9268 5.64648 10.9268ZM7.96387 10.9268H8.36719C8.47656 10.9268 8.54948 10.9108 8.58594 10.8789C8.6224 10.8424 8.64062 10.7695 8.64062 10.6602V10.2637C8.64062 10.1543 8.6224 10.0837 8.58594 10.0518C8.54948 10.0153 8.47656 9.99707 8.36719 9.99707H7.96387C7.85905 9.99707 7.78841 10.0153 7.75195 10.0518C7.71549 10.0837 7.69727 10.1543 7.69727 10.2637V10.6602C7.69727 10.7695 7.71549 10.8424 7.75195 10.8789C7.78841 10.9108 7.85905 10.9268 7.96387 10.9268Z" fill="#0C4BDB"/>
</svg>
