<svg width="13" height="13" viewBox="0 0 13 13" fill="none" xmlns="http://www.w3.org/2000/svg">
<path d="M7.49863 6.50001L11.9611 2.04459C12.0945 1.91121 12.1694 1.73031 12.1694 1.54168C12.1694 1.35305 12.0945 1.17214 11.9611 1.03876C11.8277 0.905377 11.6468 0.830444 11.4582 0.830444C11.2696 0.830444 11.0887 0.905377 10.9553 1.03876L6.49988 5.50126L2.04446 1.03876C1.91108 0.905377 1.73017 0.830445 1.54154 0.830445C1.35291 0.830445 1.17201 0.905377 1.03863 1.03876C0.905244 1.17214 0.830311 1.35305 0.830311 1.54168C0.830311 1.73031 0.905244 1.91121 1.03863 2.04459L5.50113 6.50001L1.03863 10.9554C0.972234 11.0213 0.919539 11.0996 0.883577 11.1859C0.847616 11.2722 0.829102 11.3648 0.829102 11.4583C0.829102 11.5518 0.847616 11.6444 0.883577 11.7308C0.919539 11.8171 0.972234 11.8954 1.03863 11.9613C1.10447 12.0276 1.18282 12.0803 1.26913 12.1163C1.35545 12.1523 1.44803 12.1708 1.54154 12.1708C1.63505 12.1708 1.72763 12.1523 1.81395 12.1163C1.90027 12.0803 1.97861 12.0276 2.04446 11.9613L6.49988 7.49876L10.9553 11.9613C11.0211 12.0276 11.0995 12.0803 11.1858 12.1163C11.2721 12.1523 11.3647 12.1708 11.4582 12.1708C11.5517 12.1708 11.6443 12.1523 11.7306 12.1163C11.8169 12.0803 11.8953 12.0276 11.9611 11.9613C12.0275 11.8954 12.0802 11.8171 12.1162 11.7308C12.1521 11.6444 12.1707 11.5518 12.1707 11.4583C12.1707 11.3648 12.1521 11.2722 12.1162 11.1859C12.0802 11.0996 12.0275 11.0213 11.9611 10.9554L7.49863 6.50001Z" fill="#DB3131"/>
</svg>
