<svg width="17" height="19" viewBox="0 0 17 19" fill="none" xmlns="http://www.w3.org/2000/svg">
<path opacity="0.4" d="M15.3679 7.38932C15.3679 7.44944 14.8967 13.4093 14.6275 15.9176C14.459 17.4569 13.4667 18.3905 11.9782 18.417C10.8346 18.4427 9.71499 18.4515 8.61347 18.4515C7.44402 18.4515 6.30037 18.4427 5.19025 18.417C3.75165 18.3825 2.75848 17.4303 2.59854 15.9176C2.32166 13.4005 1.85904 7.44944 1.85044 7.38932C1.84184 7.20807 1.90031 7.03566 2.01898 6.89597C2.13592 6.76689 2.30446 6.68909 2.4816 6.68909H14.7453C14.9216 6.68909 15.0816 6.76689 15.208 6.89597C15.3258 7.03566 15.3851 7.20807 15.3679 7.38932Z" fill="#777777"/>
<path d="M16.5672 4.28448C16.5672 3.92111 16.2808 3.63642 15.9369 3.63642H13.3589C12.8344 3.63642 12.3787 3.26332 12.2617 2.73726L12.1173 2.09273C11.9152 1.31382 11.2178 0.768311 10.4353 0.768311H6.78508C5.99398 0.768311 5.30349 1.31382 5.09367 2.13517L4.95867 2.73814C4.84087 3.26332 4.38512 3.63642 3.86145 3.63642H1.2835C0.938687 3.63642 0.652344 3.92111 0.652344 4.28448V4.62045C0.652344 4.97499 0.938687 5.26852 1.2835 5.26852H15.9369C16.2808 5.26852 16.5672 4.97499 16.5672 4.62045V4.28448Z" fill="#777777"/>
</svg>
