<svg width="18" height="20" viewBox="0 0 18 20" fill="none" xmlns="http://www.w3.org/2000/svg">
<path opacity="0.4" d="M16.643 7.48838C16.643 7.55638 16.11 14.2971 15.8056 17.134C15.615 18.875 14.4927 19.9309 12.8092 19.9609C11.5157 19.9899 10.2494 19.9999 9.00358 19.9999C7.68091 19.9999 6.38741 19.9899 5.13185 19.9609C3.50477 19.922 2.38147 18.845 2.20057 17.134C1.88741 14.2871 1.36418 7.55638 1.35445 7.48838C1.34473 7.28339 1.41086 7.0884 1.54507 6.9304C1.67734 6.78441 1.86796 6.69641 2.06831 6.69641H15.9388C16.1382 6.69641 16.3191 6.78441 16.4621 6.9304C16.5953 7.0884 16.6624 7.28339 16.643 7.48838Z" fill="#C70827"/>
<path d="M18 3.97686C18 3.56588 17.6761 3.24389 17.2871 3.24389H14.3714C13.7781 3.24389 13.2627 2.8219 13.1304 2.22692L12.967 1.49795C12.7385 0.616978 11.9498 0 11.0647 0H6.93624C6.0415 0 5.26054 0.616978 5.02323 1.54595L4.87054 2.22792C4.7373 2.8219 4.22185 3.24389 3.62957 3.24389H0.713853C0.32386 3.24389 0 3.56588 0 3.97686V4.35685C0 4.75783 0.32386 5.08982 0.713853 5.08982H17.2871C17.6761 5.08982 18 4.75783 18 4.35685V3.97686Z" fill="#C70827"/>
</svg>
