<svg width="14" height="9" viewBox="0 0 14 9" fill="none" xmlns="http://www.w3.org/2000/svg">
<path d="M7 8.62012C7.64128 8.62012 8.24674 8.54199 8.81641 8.38574C9.38932 8.22949 9.91829 8.02279 10.4033 7.76562C10.8916 7.50846 11.3294 7.22526 11.7168 6.91602C12.1042 6.60677 12.4346 6.29753 12.708 5.98828C12.9814 5.67578 13.1898 5.3877 13.333 5.12402C13.4795 4.8571 13.5527 4.64225 13.5527 4.47949C13.5527 4.31673 13.4795 4.10352 13.333 3.83984C13.1865 3.57292 12.9766 3.28483 12.7031 2.97559C12.4297 2.66309 12.0993 2.35221 11.7119 2.04297C11.3245 1.73372 10.8867 1.45052 10.3984 1.19336C9.91341 0.936198 9.38444 0.729492 8.81152 0.573242C8.23861 0.416992 7.63477 0.338867 7 0.338867C6.36523 0.338867 5.76302 0.416992 5.19336 0.573242C4.62695 0.729492 4.09961 0.936198 3.61133 1.19336C3.12305 1.45052 2.68359 1.73372 2.29297 2.04297C1.9056 2.35221 1.57357 2.66309 1.29688 2.97559C1.02018 3.28483 0.808594 3.57292 0.662109 3.83984C0.515625 4.10352 0.442383 4.31673 0.442383 4.47949C0.442383 4.64225 0.515625 4.8571 0.662109 5.12402C0.808594 5.3877 1.01855 5.67578 1.29199 5.98828C1.56868 6.29753 1.90072 6.60677 2.28809 6.91602C2.67546 7.22526 3.11328 7.50846 3.60156 7.76562C4.08984 8.02279 4.61882 8.22949 5.18848 8.38574C5.75814 8.54199 6.36198 8.62012 7 8.62012ZM7 8.01465C6.44336 8.01465 5.91276 7.94629 5.4082 7.80957C4.90365 7.6696 4.43164 7.48568 3.99219 7.25781C3.55599 7.02995 3.16048 6.78255 2.80566 6.51562C2.4541 6.24544 2.15137 5.97852 1.89746 5.71484C1.64355 5.44792 1.44824 5.2054 1.31152 4.9873C1.17806 4.76921 1.11133 4.59993 1.11133 4.47949C1.11133 4.37207 1.17806 4.21257 1.31152 4.00098C1.44824 3.78939 1.64355 3.55013 1.89746 3.2832C2.15137 3.01302 2.4541 2.74284 2.80566 2.47266C3.16048 2.19922 3.55599 1.94694 3.99219 1.71582C4.43164 1.4847 4.90365 1.29915 5.4082 1.15918C5.91276 1.01595 6.44336 0.944336 7 0.944336C7.55013 0.944336 8.07747 1.01595 8.58203 1.15918C9.08659 1.29915 9.55697 1.4847 9.99316 1.71582C10.4326 1.94694 10.8298 2.19922 11.1846 2.47266C11.5394 2.74284 11.8421 3.01302 12.0928 3.2832C12.3467 3.55013 12.542 3.78939 12.6787 4.00098C12.8154 4.21257 12.8838 4.37207 12.8838 4.47949C12.8838 4.59993 12.8154 4.76921 12.6787 4.9873C12.542 5.2054 12.3467 5.44792 12.0928 5.71484C11.8421 5.97852 11.5394 6.24544 11.1846 6.51562C10.8298 6.78255 10.4326 7.02995 9.99316 7.25781C9.55697 7.48568 9.08659 7.6696 8.58203 7.80957C8.07747 7.94629 7.55013 8.01465 7 8.01465ZM7 7.20898C7.37435 7.20898 7.72754 7.13737 8.05957 6.99414C8.3916 6.85091 8.68294 6.65397 8.93359 6.40332C9.18424 6.15267 9.37956 5.86296 9.51953 5.53418C9.66276 5.20215 9.73438 4.85059 9.73438 4.47949C9.73438 4.09863 9.66276 3.74382 9.51953 3.41504C9.37956 3.08301 9.18424 2.79329 8.93359 2.5459C8.68294 2.29525 8.3916 2.09993 8.05957 1.95996C7.72754 1.81999 7.37435 1.75 7 1.75C6.61589 1.75 6.25781 1.81999 5.92578 1.95996C5.59701 2.09993 5.30566 2.29525 5.05176 2.5459C4.80111 2.79329 4.60579 3.08301 4.46582 3.41504C4.32585 3.74382 4.25586 4.09863 4.25586 4.47949C4.25911 4.85059 4.33073 5.20215 4.4707 5.53418C4.61393 5.86296 4.81087 6.15267 5.06152 6.40332C5.31217 6.65397 5.60189 6.85091 5.93066 6.99414C6.25944 7.13737 6.61589 7.20898 7 7.20898ZM7 5.34863C6.75586 5.34863 6.54753 5.264 6.375 5.09473C6.20247 4.9222 6.11621 4.71712 6.11621 4.47949C6.11621 4.23861 6.20247 4.03353 6.375 3.86426C6.54753 3.69499 6.75586 3.61035 7 3.61035C7.24089 3.61035 7.44596 3.69499 7.61523 3.86426C7.78776 4.03353 7.87402 4.23861 7.87402 4.47949C7.87402 4.71712 7.78776 4.9222 7.61523 5.09473C7.44596 5.264 7.24089 5.34863 7 5.34863Z" fill="#0C4BDB"/>
</svg>
