<svg width="18" height="18" viewBox="0 0 18 18" fill="none" xmlns="http://www.w3.org/2000/svg">
<path d="M9.00008 0.666656C4.40508 0.666656 0.666748 4.40499 0.666748 8.99999C0.666748 13.1692 3.74758 16.6229 7.75008 17.2292V11.0833H6.08341C5.85341 11.0833 5.66675 10.8971 5.66675 10.6667V9.41666C5.66675 9.18624 5.85341 8.99999 6.08341 8.99999H7.75008V7.48666C7.75008 5.50707 8.76133 4.41666 10.5976 4.41666C11.3417 4.41666 11.9288 4.46832 11.9534 4.47041C12.1684 4.48957 12.3334 4.66957 12.3334 4.88541V6.29166C12.3334 6.52207 12.1467 6.70832 11.9167 6.70832H11.0834C10.6238 6.70832 10.2501 7.08207 10.2501 7.54166V8.99999H11.9167C12.0363 8.99999 12.1501 9.05124 12.2292 9.14082C12.3084 9.23082 12.3451 9.34999 12.3305 9.46832L12.1742 10.7183C12.148 10.9267 11.9705 11.0833 11.7605 11.0833H10.2501V17.2292C14.2526 16.6229 17.3334 13.1692 17.3334 8.99999C17.3334 4.40499 13.5951 0.666656 9.00008 0.666656Z" fill="#fff"/>
</svg>
