<svg width="130" height="32" viewBox="0 0 130 32" fill="none" xmlns="http://www.w3.org/2000/svg">
<path d="M42.5603 8.56488H29.9602C24.9143 8.56488 21.7966 10.6873 21.7966 14.9296V24.6385H28.547V10.7197C28.547 9.75422 29.1269 9.36856 29.9602 9.36856H33.3665V18.4653H39.1541V9.36856H42.5603C43.3963 9.36856 43.9735 9.75422 43.9735 10.7197V24.6385H50.7239V14.9296C50.7239 10.6873 47.6062 8.56488 42.5576 8.56488H42.5603Z" fill="white"/>
<path d="M65.5434 15.2829C68.4372 14.962 69.5942 13.4841 69.5942 12.0035C69.5942 10.6199 68.5667 9.20674 65.8023 8.82108C68.3428 8.43542 69.2733 7.21368 69.2733 5.86252C69.2733 1.52317 59.7909 3.32201 59.7909 0.430908V0.174713H55.2897V0.430908C55.2897 3.7751 63.4236 1.33171 63.4236 4.6732V7.30807C63.4236 8.14412 63.1674 8.65928 61.7839 8.49746L58.8901 8.17648V9.62206L61.7839 9.30114C63.1674 9.13932 63.4236 9.65441 63.4236 10.4905V13.6405C63.4236 14.4765 63.1674 14.9917 61.7839 14.8298L58.8901 14.5089V15.9544L61.7839 15.6335C63.1674 15.4717 63.4236 15.9868 63.4236 16.8228V22.5457C63.4236 23.5112 62.8141 23.8322 62.0104 23.7351L52.6548 22.7076L54.1004 24.6358H62.5876C68.7581 24.6358 70.7835 22.0306 70.7835 19.5576C70.7835 17.6616 69.2085 15.7953 65.5434 15.2829Z" fill="white"/>
<path d="M80.46 8.2439H79.5268C75.4437 8.2439 72.4555 10.0751 72.4555 13.2575V15.4447H77.5985V10.3987C77.5985 9.43324 78.1784 9.04758 79.0117 9.04758H80.7809C81.6169 9.04758 82.1941 9.43324 82.1941 10.3987V29.2988C82.1941 30.2643 81.5846 30.5852 80.7809 30.4881L72.0698 29.4607L73.5154 31.3889H80.46C87.178 31.3889 88.9472 28.657 88.9472 25.4099V14.223C88.9472 10.9759 87.178 8.2439 80.46 8.2439Z" fill="white"/>
<path d="M12.1173 8.5028V6.6716C12.1173 2.78263 7.03899 4.09874 7.03899 1.75241V1.26968H2.53782V1.68769C2.53782 4.29292 6.97427 2.42664 6.97427 4.71093V8.5028C2.732 9.40357 0 12.5213 0 16.6988C0 21.6477 3.85661 25.1213 9.51477 25.1213C15.1729 25.1213 19.0619 21.6504 19.0619 16.6988C19.0619 12.5186 16.3299 9.40087 12.1173 8.5028ZM12.2791 23.2253C12.2791 23.8025 11.7964 24.3499 9.51477 24.3499C7.23317 24.3499 6.75042 23.8025 6.75042 23.2253V10.1425C6.75042 9.59507 7.13608 9.08268 9.16147 9.01795H9.8357C11.8287 9.08268 12.2791 9.59777 12.2791 10.1425V23.2253Z" fill="white"/>
<path d="M102.61 0.27179H100.714C95.9891 0.27179 92.9982 2.10299 92.9982 5.28537V5.99196H98.7858V2.42393C98.7858 1.45843 99.363 1.07277 100.199 1.07277H102.931C103.767 1.07277 104.344 1.45843 104.344 2.42393V8.56487H101.483C95.6331 8.56487 91.6794 11.7472 91.6794 16.8579C91.6794 21.9686 95.6331 25.151 101.483 25.151C107.332 25.151 111.095 21.9362 111.095 16.8255V6.25089C111.095 3.00379 109.325 0.27179 102.607 0.27179H102.61ZM104.347 23.2226C104.347 23.7998 103.864 24.3472 101.485 24.3472C99.1068 24.3472 98.6564 23.7998 98.6564 23.2226V10.9112C98.6564 9.65712 99.1391 9.36855 101.485 9.36855H104.347V23.2226Z" fill="white"/>
<path d="M119.744 8.56488V8.2439H115.242V8.56488C115.242 12.9366 122.991 10.8464 122.991 13.902V22.5484C122.991 23.5139 122.378 23.8349 121.578 23.7378L112.866 22.7103L114.312 24.6385H121.257C127.106 24.6385 130 21.4561 130 18.0823C130 10.7197 119.746 13.2926 119.746 8.56758L119.744 8.56488Z" fill="white"/>
</svg>
