<svg width="15" height="18" viewBox="0 0 15 18" fill="none" xmlns="http://www.w3.org/2000/svg">
<path d="M0 6.52778C0 2.125 1.6541 0 6.89915 0H8.10085C13.3459 0 15 2.125 15 6.52778V11.4722C15 15.8472 13.3459 18 8.1574 18H6.91329C1.66824 18 0.0141376 15.8472 0.0141376 11.4722V6.52778H0ZM6.89915 0.625001C5.81056 0.625001 5.59849 0.902776 5.59849 1.55555V16.4583C5.59849 17.1111 5.79642 17.3889 6.89915 17.3889H8.10085C9.18944 17.3889 9.40151 17.1111 9.40151 16.4583V1.55555C9.40151 0.902776 9.20358 0.625001 8.10085 0.625001H6.89915Z" fill="white"/>
</svg>
