<svg width="98" height="30" viewBox="0 0 98 30" fill="none" xmlns="http://www.w3.org/2000/svg">
<g clip-path="url(#clip0_1235_15365)">
<path d="M23.5255 14.6199L19.7983 12.4509L16.7334 15.4391L19.5321 18.1717L23.519 15.8453C23.7398 15.7208 23.8697 15.4849 23.8697 15.2294C23.8762 14.9738 23.7398 14.7444 23.5255 14.6199Z" fill="#FFD109"/>
<path d="M19.1683 12.0839L15.0644 9.69201L6.08398 5.04587L16.2332 14.9476L19.1683 12.0839Z" fill="#06EF79"/>
<path d="M6.2334 25.6815L15.0839 20.7602L18.9021 18.5387L16.2333 15.9305L6.2334 25.6815Z" fill="#F93646"/>
<path d="M5.48662 5.44561L5.47363 25.4391L15.7268 15.4391L5.48662 5.44561Z" fill="#05D5FB"/>
<path d="M93.9794 0.655308C95.7067 0.655308 97.1093 2.07077 97.1093 3.81389V26.1927C97.1093 27.9358 95.7067 29.3512 93.9794 29.3512H3.77918C2.05192 29.3512 0.649343 27.9358 0.649343 26.1927V3.81389C0.649343 2.07077 2.05192 0.655308 3.77918 0.655308H93.9794ZM93.9794 0H3.77918C1.69479 0 0 1.71035 0 3.81389V26.1927C0 28.2962 1.69479 30.0066 3.77918 30.0066H93.9794C96.0638 30.0066 97.7586 28.2962 97.7586 26.1927V3.81389C97.7586 1.71035 96.0703 0 93.9794 0Z" fill="black"/>
<path d="M32.0391 18.1258H33.4027V21.2451C33.0066 21.5662 32.5391 21.8087 32.0066 21.9856C31.4741 22.156 30.9287 22.2412 30.3638 22.2412C29.5716 22.2412 28.8573 22.0708 28.2274 21.7235C27.5911 21.3761 27.0911 20.8978 26.7339 20.2883C26.3703 19.6789 26.1885 18.9843 26.1885 18.2176C26.1885 17.4509 26.3703 16.7628 26.7339 16.1468C27.0976 15.5374 27.5976 15.059 28.2339 14.7117C28.8703 14.3644 29.591 14.194 30.3897 14.194C31.0391 14.194 31.63 14.3054 32.1624 14.5216C32.6949 14.7379 33.1429 15.0524 33.5066 15.4718L32.5975 16.3696C32.0066 15.7733 31.2923 15.4718 30.4612 15.4718C29.9157 15.4718 29.4287 15.5898 29.0066 15.8191C28.5846 16.0485 28.2469 16.3761 28.0066 16.7955C27.7664 17.2149 27.6495 17.6933 27.6495 18.2241C27.6495 18.7484 27.7664 19.2136 28.0066 19.633C28.2469 20.0524 28.5781 20.3801 29.0066 20.616C29.4287 20.8519 29.9157 20.9764 30.4547 20.9764C31.0586 20.9764 31.591 20.8453 32.052 20.5767V18.1258H32.0391Z" fill="black"/>
<path d="M36.2076 21.8152C35.7271 21.5531 35.3505 21.1927 35.0842 20.7274C34.8115 20.2621 34.6816 19.7313 34.6816 19.1415C34.6816 18.5518 34.818 18.0275 35.0842 17.5623C35.357 17.097 35.7271 16.7366 36.2076 16.4744C36.6881 16.2123 37.2271 16.0813 37.8245 16.0813C38.4284 16.0813 38.9738 16.2123 39.4543 16.4744C39.9348 16.7366 40.3114 17.097 40.5777 17.5623C40.8504 18.0275 40.9803 18.5518 40.9803 19.1415C40.9803 19.7313 40.8439 20.2556 40.5777 20.7274C40.305 21.1927 39.9348 21.5596 39.4543 21.8152C38.9738 22.0773 38.4284 22.2084 37.8245 22.2084C37.2271 22.2084 36.6881 22.0773 36.2076 21.8152ZM39.0907 20.498C39.4218 20.1573 39.5907 19.7051 39.5907 19.1415C39.5907 18.5845 39.4218 18.1324 39.0907 17.7851C38.7595 17.4443 38.3374 17.2674 37.8245 17.2674C37.3115 17.2674 36.8959 17.4377 36.5647 17.7851C36.2336 18.1258 36.0712 18.578 36.0712 19.1415C36.0712 19.6986 36.2336 20.1507 36.5647 20.498C36.8959 20.8388 37.3115 21.0157 37.8245 21.0157C38.3374 21.0092 38.753 20.8388 39.0907 20.498Z" fill="black"/>
<path d="M43.357 21.8152C42.8765 21.5531 42.4999 21.1927 42.2336 20.7274C41.9609 20.2621 41.8311 19.7313 41.8311 19.1415C41.8311 18.5518 41.9674 18.0275 42.2336 17.5623C42.5064 17.097 42.8765 16.7366 43.357 16.4744C43.8375 16.2123 44.3765 16.0813 44.9739 16.0813C45.5778 16.0813 46.1232 16.2123 46.6037 16.4744C47.0842 16.7366 47.4609 17.097 47.7271 17.5623C47.9998 18.0275 48.1297 18.5518 48.1297 19.1415C48.1297 19.7313 47.9933 20.2556 47.7271 20.7274C47.4544 21.1927 47.0842 21.5596 46.6037 21.8152C46.1232 22.0773 45.5778 22.2084 44.9739 22.2084C44.3765 22.2084 43.8375 22.0773 43.357 21.8152ZM46.2401 20.498C46.5713 20.1573 46.7401 19.7051 46.7401 19.1415C46.7401 18.5845 46.5713 18.1324 46.2401 17.7851C45.9089 17.4443 45.4869 17.2674 44.9739 17.2674C44.4609 17.2674 44.0453 17.4377 43.7141 17.7851C43.383 18.1258 43.2206 18.578 43.2206 19.1415C43.2206 19.6986 43.383 20.1507 43.7141 20.498C44.0453 20.8388 44.4609 21.0157 44.9739 21.0157C45.4869 21.0092 45.9024 20.8388 46.2401 20.498Z" fill="black"/>
<path d="M55.3378 16.1533V21.2189C55.3378 23.3224 54.2729 24.3709 52.1431 24.3709C51.5716 24.3709 51.0327 24.2988 50.5262 24.1547C50.0132 24.0105 49.5976 23.8008 49.26 23.5256L49.8833 22.4771C50.1431 22.6933 50.4678 22.8637 50.8639 22.9948C51.26 23.1258 51.6625 23.1914 52.0651 23.1914C52.7145 23.1914 53.195 23.0406 53.4937 22.7457C53.7989 22.4443 53.9482 21.9921 53.9482 21.3827V21.0682C53.7145 21.3303 53.4223 21.5269 53.0846 21.6579C52.747 21.789 52.3703 21.8611 51.9677 21.8611C51.4093 21.8611 50.8963 21.7431 50.4418 21.5007C49.9872 21.2582 49.6301 20.9174 49.3639 20.4784C49.1041 20.0393 48.9678 19.5347 48.9678 18.9712C48.9678 18.4076 49.0976 17.903 49.3639 17.464C49.6236 17.0249 49.9872 16.6907 50.4418 16.4548C50.8963 16.2189 51.4028 16.0944 51.9677 16.0944C52.3963 16.0944 52.7859 16.1664 53.1366 16.3041C53.4872 16.4482 53.7794 16.6645 54.0197 16.9528V16.1599H55.3378V16.1533ZM53.4677 20.1966C53.8054 19.882 53.9742 19.4692 53.9742 18.9581C53.9742 18.46 53.8054 18.0537 53.4677 17.7392C53.1301 17.4246 52.7015 17.2674 52.1755 17.2674C51.6431 17.2674 51.208 17.4246 50.8704 17.7392C50.5327 18.0537 50.3639 18.46 50.3639 18.9581C50.3639 19.4626 50.5327 19.8755 50.8704 20.1966C51.208 20.5111 51.6431 20.675 52.1755 20.675C52.7015 20.675 53.1366 20.5177 53.4677 20.1966Z" fill="black"/>
<path d="M57.1553 13.827H58.5384V22.1298H57.1553V13.827Z" fill="black"/>
<path d="M65.9025 19.5872H61.2597C61.3441 20.0262 61.5519 20.3735 61.8961 20.6356C62.2402 20.8912 62.6688 21.0223 63.1753 21.0223C63.8246 21.0223 64.3636 20.806 64.7856 20.3735L65.5259 21.232C65.2597 21.5531 64.922 21.7955 64.5194 21.9594C64.1103 22.1232 63.6558 22.2084 63.1428 22.2084C62.4935 22.2084 61.922 22.0773 61.422 21.8152C60.9285 21.5531 60.5454 21.1927 60.2727 20.7274C60 20.2621 59.8701 19.7313 59.8701 19.1415C59.8701 18.5583 60 18.0341 60.2662 17.5688C60.526 17.1035 60.8896 16.7366 61.3571 16.481C61.8246 16.2189 62.3441 16.0878 62.9285 16.0878C63.5064 16.0878 64.0194 16.2189 64.474 16.4744C64.9285 16.73 65.2856 17.0904 65.5389 17.5623C65.7921 18.0275 65.922 18.5649 65.922 19.1809C65.922 19.2726 65.9155 19.4102 65.9025 19.5872ZM61.8052 17.6016C61.5 17.8637 61.3117 18.2176 61.2467 18.6566H64.6038C64.5454 18.2241 64.3636 17.8768 64.0584 17.6081C63.7532 17.3395 63.3766 17.2084 62.9285 17.2084C62.487 17.2084 62.1104 17.3395 61.8052 17.6016Z" fill="black"/>
<path d="M75.3959 14.633C75.8959 14.8558 76.279 15.1769 76.5452 15.5963C76.8115 16.0157 76.9413 16.5072 76.9413 17.0839C76.9413 17.6474 76.8115 18.1455 76.5452 18.5649C76.279 18.9843 75.8959 19.3119 75.3959 19.5347C74.8959 19.7575 74.3115 19.8689 73.6362 19.8689H71.8829V22.1298H70.4414V14.2988H73.6362C74.3115 14.2988 74.8959 14.4102 75.3959 14.633ZM74.9998 18.2372C75.3245 17.9685 75.4868 17.5819 75.4868 17.0839C75.4868 16.5858 75.3245 16.1992 74.9998 15.9305C74.6751 15.6619 74.2011 15.5308 73.5712 15.5308H71.8894V18.6435H73.5712C74.2011 18.637 74.6751 18.5059 74.9998 18.2372Z" fill="black"/>
<path d="M78.3564 13.827H79.7395V22.1298H78.3564V13.827Z" fill="black"/>
<path d="M85.8243 16.7169C86.2854 17.1363 86.5191 17.772 86.5191 18.6239V22.1232H85.214V21.3958C85.0451 21.6579 84.8049 21.8545 84.4867 21.9921C84.175 22.1298 83.7919 22.2018 83.3503 22.2018C82.9088 22.2018 82.5192 22.1232 82.188 21.9725C81.8569 21.8218 81.5971 21.6055 81.4153 21.3368C81.2335 21.0616 81.1426 20.7602 81.1426 20.4128C81.1426 19.8755 81.3374 19.443 81.7335 19.1219C82.1296 18.7942 82.753 18.637 83.6036 18.637H85.136V18.5452C85.136 18.1258 85.0127 17.8047 84.7659 17.5819C84.5192 17.3591 84.149 17.2477 83.662 17.2477C83.3309 17.2477 82.9997 17.3001 82.6815 17.405C82.3569 17.5098 82.0906 17.654 81.8698 17.844L81.3244 16.8283C81.6361 16.5924 82.0062 16.4089 82.4413 16.2779C82.8763 16.1533 83.3374 16.0878 83.8244 16.0878C84.6945 16.0878 85.3633 16.2975 85.8243 16.7169ZM84.5581 20.9502C84.8308 20.7929 85.0192 20.5636 85.1295 20.2621V19.5675H83.701C82.9023 19.5675 82.5062 19.8296 82.5062 20.3604C82.5062 20.616 82.6036 20.8126 82.8049 20.9633C83.0062 21.114 83.2789 21.1861 83.6361 21.1861C83.9802 21.1861 84.2919 21.1075 84.5581 20.9502Z" fill="black"/>
<path d="M93.7199 16.1533L90.9472 22.6081C90.6875 23.2569 90.3758 23.7156 90.0057 23.9777C89.6356 24.2398 89.1875 24.3775 88.6615 24.3775C88.3628 24.3775 88.0771 24.3316 87.7849 24.2333C87.4992 24.135 87.259 24.0039 87.0771 23.8336L87.6291 22.8047C87.759 22.9292 87.9213 23.0341 88.1031 23.1062C88.2849 23.1782 88.4667 23.2176 88.6486 23.2176C88.8953 23.2176 89.0966 23.152 89.2524 23.0275C89.4083 22.903 89.5576 22.6868 89.6875 22.3919L89.7849 22.156L87.2005 16.1599H88.6421L90.5057 20.5767L92.3758 16.1599H93.7199V16.1533Z" fill="black"/>
<path d="M28.668 9.94769C28.3563 9.94769 28.0641 9.88216 27.7914 9.74454C27.5187 9.60693 27.2849 9.42344 27.0836 9.18753C26.8823 8.95817 26.7265 8.69605 26.6161 8.40116C26.5057 8.11283 26.4473 7.81139 26.4473 7.49684C26.4473 7.16918 26.5057 6.86119 26.6161 6.57285C26.7265 6.28452 26.8823 6.02239 27.0836 5.79959C27.2849 5.57678 27.5187 5.39985 27.7849 5.26879C28.0576 5.13773 28.3498 5.07875 28.668 5.07875C29.1291 5.07875 29.5057 5.17705 29.8109 5.36709C30.1096 5.56368 30.3368 5.8127 30.4862 6.12724L30.0251 6.4549C29.8888 6.17311 29.694 5.96997 29.4537 5.83235C29.2135 5.69474 28.9472 5.62921 28.655 5.62921C28.4148 5.62921 28.194 5.68163 27.9992 5.78648C27.8044 5.89133 27.6356 6.02895 27.4927 6.21243C27.3499 6.38937 27.246 6.59251 27.168 6.81532C27.0966 7.03812 27.0576 7.27403 27.0576 7.5165C27.0576 7.77207 27.0966 8.01453 27.181 8.24389C27.2654 8.47325 27.3823 8.66984 27.5317 8.84677C27.681 9.0237 27.8628 9.15477 28.0641 9.25306C28.2654 9.35136 28.4797 9.40378 28.7135 9.40378C28.9862 9.40378 29.2459 9.3317 29.4927 9.19409C29.7394 9.05647 29.9732 8.84022 30.1875 8.55188V9.18098C29.7589 9.69212 29.2524 9.94769 28.668 9.94769ZM30.1161 7.98177H29.0901V7.52305H30.6225V9.92148H30.1161V7.98177Z" fill="black"/>
<path d="M34.7718 9.37746V9.92136H31.5381V5.1114H34.7069V5.65531H32.142V7.20839H34.3757V7.71298H32.142V9.3709H34.7718V9.37746Z" fill="black"/>
<path d="M39.0312 5.65531H37.3883V9.92136H36.7844V5.65531H35.1416V5.1114H39.0312V5.65531Z" fill="black"/>
<path d="M41.2129 9.91481V5.1114H41.8168V9.91481H41.2129Z" fill="black"/>
<path d="M43.557 6.23853V9.92136H42.9531V5.1114H43.4596L46.3687 8.86632V5.11796H46.9726V9.91481H46.4271L43.557 6.23853Z" fill="black"/>
<path d="M51.7461 9.94758C51.4084 9.94758 51.1097 9.88204 50.837 9.74443C50.5643 9.60682 50.3305 9.42333 50.1292 9.19397C49.9279 8.96461 49.7786 8.70249 49.6682 8.4076C49.5578 8.11927 49.5059 7.81782 49.5059 7.50983C49.5059 7.18873 49.5643 6.88073 49.6747 6.5924C49.7916 6.30406 49.9474 6.04194 50.1487 5.81258C50.35 5.58322 50.5903 5.40629 50.863 5.26868C51.1357 5.13762 51.4344 5.07208 51.7526 5.07208C52.0902 5.07208 52.3889 5.14417 52.6617 5.28178C52.9344 5.4194 53.1682 5.60944 53.363 5.84535C53.5578 6.08126 53.7136 6.34338 53.8175 6.63172C53.9279 6.92005 53.9798 7.21494 53.9798 7.51638C53.9798 7.83748 53.9214 8.14548 53.811 8.43381C53.7006 8.72215 53.5448 8.98427 53.337 9.21363C53.1357 9.44299 52.8954 9.61992 52.6227 9.75098C52.363 9.8886 52.0643 9.94758 51.7461 9.94758ZM50.1162 7.51638C50.1162 7.75885 50.1552 7.99476 50.2331 8.22412C50.311 8.45347 50.4214 8.65662 50.5643 8.827C50.7071 9.00393 50.8825 9.14155 51.0838 9.2464C51.2851 9.35125 51.5058 9.40367 51.7526 9.40367C52.0058 9.40367 52.2331 9.35125 52.4344 9.23984C52.6357 9.12844 52.8045 8.98427 52.9474 8.80734C53.0902 8.62385 53.1941 8.42071 53.272 8.1979C53.3435 7.9751 53.3824 7.74574 53.3824 7.51638C53.3824 7.27392 53.3435 7.03801 53.2656 6.8152C53.1876 6.5924 53.0772 6.38925 52.9279 6.21232C52.785 6.03539 52.6097 5.89122 52.4084 5.79292C52.2071 5.69463 51.9864 5.6422 51.7461 5.6422C51.4928 5.6422 51.2656 5.69463 51.0643 5.79948C50.863 5.90433 50.6942 6.04849 50.5513 6.23198C50.4084 6.41547 50.3045 6.61206 50.2266 6.83486C50.1552 7.05111 50.1162 7.28047 50.1162 7.51638Z" fill="black"/>
<path d="M55.434 6.23853V9.92136H54.8301V5.1114H55.3366L58.2456 8.86632V5.11796H58.8495V9.91481H58.2976L55.434 6.23853Z" fill="black"/>
</g>
<defs>
<clipPath id="clip0_1235_15365">
<rect width="97.7586" height="30" fill="white"/>
</clipPath>
</defs>
</svg>
