<svg width="98" height="30" viewBox="0 0 98 30" fill="none" xmlns="http://www.w3.org/2000/svg">
<g clip-path="url(#clip0_1275_13766)">
<path d="M23.5258 14.6199L19.7985 12.4508L16.7336 15.439L19.5323 18.1717L23.5193 15.8453C23.7401 15.7208 23.8699 15.4849 23.8699 15.2293C23.8764 14.9738 23.7401 14.7444 23.5258 14.6199Z" fill="#FFD109"/>
<path d="M19.1686 12.0839L15.0648 9.692L6.08435 5.04587L16.2336 14.9476L19.1686 12.0839Z" fill="#06EF79"/>
<path d="M6.23376 25.6815L15.0843 20.7602L18.9025 18.5387L16.2337 15.9305L6.23376 25.6815Z" fill="#F93646"/>
<path d="M5.48699 5.44562L5.474 25.4391L15.7271 15.4391L5.48699 5.44562Z" fill="#05D5FB"/>
<path d="M93.9794 0.655308C95.7067 0.655308 97.1093 2.07077 97.1093 3.81389V26.1927C97.1093 27.9358 95.7067 29.3512 93.9794 29.3512H3.77918C2.05192 29.3512 0.649343 27.9358 0.649343 26.1927V3.81389C0.649343 2.07077 2.05192 0.655308 3.77918 0.655308H93.9794ZM93.9794 0H3.77918C1.69479 0 0 1.71035 0 3.81389V26.1927C0 28.2962 1.69479 30.0066 3.77918 30.0066H93.9794C96.0638 30.0066 97.7586 28.2962 97.7586 26.1927V3.81389C97.7586 1.71035 96.0703 0 93.9794 0Z" fill="white"/>
<path d="M32.0386 18.1258H33.4022V21.2451C33.0061 21.5662 32.5386 21.8086 32.0061 21.9856C31.4736 22.156 30.9282 22.2412 30.3633 22.2412C29.5711 22.2412 28.8568 22.0708 28.2269 21.7235C27.5906 21.3761 27.0906 20.8978 26.7334 20.2883C26.3698 19.6789 26.188 18.9843 26.188 18.2176C26.188 17.4509 26.3698 16.7628 26.7334 16.1468C27.0971 15.5374 27.5971 15.059 28.2334 14.7117C28.8698 14.3643 29.5905 14.194 30.3892 14.194C31.0386 14.194 31.6295 14.3054 32.1619 14.5216C32.6944 14.7379 33.1425 15.0524 33.5061 15.4718L32.597 16.3696C32.0061 15.7733 31.2918 15.4718 30.4607 15.4718C29.9152 15.4718 29.4282 15.5898 29.0061 15.8191C28.5841 16.0485 28.2464 16.3761 28.0061 16.7955C27.7659 17.2149 27.649 17.6933 27.649 18.2241C27.649 18.7484 27.7659 19.2136 28.0061 19.633C28.2464 20.0524 28.5776 20.3801 29.0061 20.616C29.4282 20.8519 29.9152 20.9764 30.4542 20.9764C31.0581 20.9764 31.5905 20.8453 32.0516 20.5767V18.1258H32.0386Z" fill="white"/>
<path d="M36.2074 21.8152C35.7268 21.5531 35.3502 21.1927 35.084 20.7274C34.8113 20.2621 34.6814 19.7313 34.6814 19.1416C34.6814 18.5518 34.8178 18.0275 35.084 17.5623C35.3567 17.097 35.7268 16.7366 36.2074 16.4745C36.6879 16.2123 37.2268 16.0813 37.8242 16.0813C38.4281 16.0813 38.9736 16.2123 39.4541 16.4745C39.9346 16.7366 40.3112 17.097 40.5774 17.5623C40.8502 18.0275 40.98 18.5518 40.98 19.1416C40.98 19.7313 40.8437 20.2556 40.5774 20.7274C40.3047 21.1927 39.9346 21.5596 39.4541 21.8152C38.9736 22.0773 38.4281 22.2084 37.8242 22.2084C37.2268 22.2084 36.6879 22.0773 36.2074 21.8152ZM39.0904 20.498C39.4216 20.1573 39.5904 19.7051 39.5904 19.1416C39.5904 18.5845 39.4216 18.1324 39.0904 17.7851C38.7593 17.4443 38.3372 17.2674 37.8242 17.2674C37.3112 17.2674 36.8957 17.4378 36.5645 17.7851C36.2333 18.1258 36.071 18.578 36.071 19.1416C36.071 19.6986 36.2333 20.1507 36.5645 20.498C36.8957 20.8388 37.3112 21.0157 37.8242 21.0157C38.3372 21.0092 38.7528 20.8388 39.0904 20.498Z" fill="white"/>
<path d="M43.3566 21.8152C42.8761 21.5531 42.4995 21.1927 42.2333 20.7274C41.9606 20.2621 41.8307 19.7313 41.8307 19.1416C41.8307 18.5518 41.9671 18.0275 42.2333 17.5623C42.506 17.097 42.8761 16.7366 43.3566 16.4745C43.8372 16.2123 44.3761 16.0813 44.9735 16.0813C45.5774 16.0813 46.1228 16.2123 46.6034 16.4745C47.0839 16.7366 47.4605 17.097 47.7267 17.5623C47.9994 18.0275 48.1293 18.5518 48.1293 19.1416C48.1293 19.7313 47.993 20.2556 47.7267 20.7274C47.454 21.1927 47.0839 21.5596 46.6034 21.8152C46.1228 22.0773 45.5774 22.2084 44.9735 22.2084C44.3761 22.2084 43.8372 22.0773 43.3566 21.8152ZM46.2397 20.498C46.5709 20.1573 46.7397 19.7051 46.7397 19.1416C46.7397 18.5845 46.5709 18.1324 46.2397 17.7851C45.9086 17.4443 45.4865 17.2674 44.9735 17.2674C44.4605 17.2674 44.0449 17.4378 43.7138 17.7851C43.3826 18.1258 43.2203 18.578 43.2203 19.1416C43.2203 19.6986 43.3826 20.1507 43.7138 20.498C44.0449 20.8388 44.4605 21.0157 44.9735 21.0157C45.4865 21.0092 45.9021 20.8388 46.2397 20.498Z" fill="white"/>
<path d="M55.337 16.1533V21.2189C55.337 23.3224 54.2721 24.3709 52.1422 24.3709C51.5708 24.3709 51.0318 24.2988 50.5253 24.1546C50.0124 24.0105 49.5968 23.8008 49.2591 23.5256L49.8825 22.4771C50.1422 22.6933 50.4669 22.8637 50.863 22.9948C51.2591 23.1258 51.6617 23.1913 52.0643 23.1913C52.7136 23.1913 53.1941 23.0406 53.4928 22.7457C53.798 22.4443 53.9474 21.9921 53.9474 21.3827V21.0681C53.7136 21.3303 53.4214 21.5269 53.0838 21.6579C52.7461 21.789 52.3695 21.8611 51.9669 21.8611C51.4085 21.8611 50.8955 21.7431 50.4409 21.5007C49.9864 21.2582 49.6293 20.9174 49.363 20.4784C49.1033 20.0393 48.9669 19.5347 48.9669 18.9712C48.9669 18.4076 49.0968 17.903 49.363 17.464C49.6228 17.0249 49.9864 16.6907 50.4409 16.4548C50.8955 16.2189 51.402 16.0944 51.9669 16.0944C52.3955 16.0944 52.7851 16.1664 53.1357 16.3041C53.4863 16.4482 53.7786 16.6645 54.0188 16.9528V16.1599H55.337V16.1533ZM53.4669 20.1966C53.8045 19.882 53.9734 19.4692 53.9734 18.9581C53.9734 18.46 53.8045 18.0537 53.4669 17.7392C53.1292 17.4246 52.7006 17.2674 52.1747 17.2674C51.6422 17.2674 51.2072 17.4246 50.8695 17.7392C50.5318 18.0537 50.363 18.46 50.363 18.9581C50.363 19.4626 50.5318 19.8755 50.8695 20.1966C51.2072 20.5111 51.6422 20.675 52.1747 20.675C52.7006 20.675 53.1357 20.5177 53.4669 20.1966Z" fill="white"/>
<path d="M57.1552 13.827H58.5383V22.1297H57.1552V13.827Z" fill="white"/>
<path d="M65.9018 19.5871H61.259C61.3434 20.0262 61.5512 20.3735 61.8953 20.6356C62.2395 20.8912 62.6681 21.0223 63.1745 21.0223C63.8239 21.0223 64.3628 20.806 64.7849 20.3735L65.5252 21.232C65.2589 21.5531 64.9213 21.7955 64.5187 21.9594C64.1096 22.1232 63.6551 22.2084 63.1421 22.2084C62.4927 22.2084 61.9213 22.0773 61.4213 21.8152C60.9278 21.5531 60.5447 21.1926 60.272 20.7274C59.9993 20.2621 59.8694 19.7313 59.8694 19.1415C59.8694 18.5583 59.9993 18.0341 60.2655 17.5688C60.5252 17.1035 60.8889 16.7366 61.3564 16.481C61.8239 16.2189 62.3434 16.0878 62.9278 16.0878C63.5057 16.0878 64.0187 16.2189 64.4732 16.4744C64.9278 16.73 65.2849 17.0904 65.5382 17.5622C65.7914 18.0275 65.9213 18.5649 65.9213 19.1809C65.9213 19.2726 65.9148 19.4102 65.9018 19.5871ZM61.8044 17.6016C61.4992 17.8637 61.3109 18.2176 61.246 18.6566H64.6031C64.5447 18.2241 64.3628 17.8768 64.0576 17.6081C63.7525 17.3394 63.3758 17.2084 62.9278 17.2084C62.4862 17.2084 62.1096 17.3394 61.8044 17.6016Z" fill="white"/>
<path d="M75.3952 14.633C75.8952 14.8558 76.2783 15.1769 76.5445 15.5963C76.8107 16.0157 76.9406 16.5072 76.9406 17.0839C76.9406 17.6475 76.8107 18.1455 76.5445 18.5649C76.2783 18.9843 75.8952 19.3119 75.3952 19.5347C74.8952 19.7575 74.3108 19.8689 73.6354 19.8689H71.8822V22.1298H70.4407V14.2988H73.6354C74.3108 14.2988 74.8952 14.4102 75.3952 14.633ZM74.9991 18.2372C75.3237 17.9686 75.4861 17.5819 75.4861 17.0839C75.4861 16.5859 75.3237 16.1992 74.9991 15.9305C74.6744 15.6619 74.2004 15.5308 73.5705 15.5308H71.8887V18.6435H73.5705C74.2004 18.637 74.6744 18.5059 74.9991 18.2372Z" fill="white"/>
<path d="M78.3562 13.827H79.7393V22.1297H78.3562V13.827Z" fill="white"/>
<path d="M85.8236 16.7169C86.2846 17.1363 86.5184 17.7719 86.5184 18.6238V22.1232H85.2132V21.3958C85.0444 21.6579 84.8041 21.8545 84.486 21.9921C84.1743 22.1297 83.7912 22.2018 83.3496 22.2018C82.9081 22.2018 82.5185 22.1232 82.1873 21.9725C81.8561 21.8217 81.5964 21.6055 81.4146 21.3368C81.2328 21.0616 81.1418 20.7601 81.1418 20.4128C81.1418 19.8755 81.3366 19.443 81.7327 19.1219C82.1288 18.7942 82.7522 18.6369 83.6029 18.6369H85.1353V18.5452C85.1353 18.1258 85.0119 17.8047 84.7652 17.5819C84.5184 17.3591 84.1483 17.2477 83.6613 17.2477C83.3301 17.2477 82.999 17.3001 82.6808 17.405C82.3561 17.5098 82.0899 17.654 81.8691 17.844L81.3237 16.8283C81.6353 16.5924 82.0055 16.4089 82.4405 16.2778C82.8756 16.1533 83.3366 16.0878 83.8236 16.0878C84.6938 16.0878 85.3626 16.2975 85.8236 16.7169ZM84.5574 20.9502C84.8301 20.7929 85.0184 20.5636 85.1288 20.2621V19.5675H83.7003C82.9016 19.5675 82.5055 19.8296 82.5055 20.3604C82.5055 20.616 82.6029 20.8126 82.8042 20.9633C83.0055 21.114 83.2782 21.1861 83.6353 21.1861C83.9795 21.1861 84.2912 21.1075 84.5574 20.9502Z" fill="white"/>
<path d="M93.7197 16.1534L90.947 22.6081C90.6873 23.2569 90.3756 23.7156 90.0054 23.9777C89.6353 24.2399 89.1873 24.3775 88.6613 24.3775C88.3626 24.3775 88.0769 24.3316 87.7847 24.2333C87.499 24.135 87.2587 24.0039 87.0769 23.8336L87.6288 22.8047C87.7587 22.9292 87.9211 23.0341 88.1029 23.1062C88.2847 23.1783 88.4665 23.2176 88.6483 23.2176C88.8951 23.2176 89.0964 23.152 89.2522 23.0275C89.408 22.903 89.5574 22.6868 89.6873 22.3919L89.7847 22.156L87.2003 16.1599H88.6418L90.5054 20.5767L92.3755 16.1599H93.7197V16.1534Z" fill="white"/>
<path d="M28.6685 9.94767C28.3568 9.94767 28.0646 9.88214 27.7919 9.74453C27.5192 9.60691 27.2854 9.42343 27.0841 9.18752C26.8828 8.95816 26.727 8.69604 26.6166 8.40115C26.5062 8.11281 26.4478 7.81137 26.4478 7.49682C26.4478 7.16917 26.5062 6.86117 26.6166 6.57284C26.727 6.2845 26.8828 6.02238 27.0841 5.79957C27.2854 5.57677 27.5192 5.39984 27.7854 5.26877C28.0581 5.13771 28.3503 5.07874 28.6685 5.07874C29.1295 5.07874 29.5062 5.17703 29.8114 5.36707C30.1101 5.56366 30.3373 5.81268 30.4867 6.12723L30.0256 6.45488C29.8893 6.1731 29.6945 5.96995 29.4542 5.83234C29.214 5.69472 28.9477 5.62919 28.6555 5.62919C28.4153 5.62919 28.1945 5.68162 27.9997 5.78647C27.8049 5.89132 27.6361 6.02893 27.4932 6.21242C27.3503 6.38935 27.2464 6.5925 27.1685 6.8153C27.0971 7.03811 27.0581 7.27402 27.0581 7.51648C27.0581 7.77205 27.0971 8.01452 27.1815 8.24387C27.2659 8.47323 27.3828 8.66982 27.5322 8.84676C27.6815 9.02369 27.8633 9.15475 28.0646 9.25305C28.2659 9.35134 28.4802 9.40377 28.714 9.40377C28.9867 9.40377 29.2464 9.33168 29.4932 9.19407C29.7399 9.05646 29.9737 8.8402 30.188 8.55187V9.18096C29.7594 9.6921 29.2529 9.94767 28.6685 9.94767ZM30.1165 7.98175H29.0906V7.52303H30.623V9.92146H30.1165V7.98175Z" fill="white"/>
<path d="M34.7723 9.37745V9.92135H31.5386V5.11139H34.7074V5.6553H32.1425V7.20837H34.3762V7.71296H32.1425V9.37089H34.7723V9.37745Z" fill="white"/>
<path d="M39.032 5.6553H37.3892V9.92135H36.7853V5.6553H35.1425V5.11139H39.032V5.6553Z" fill="white"/>
<path d="M41.2139 9.9148V5.11139H41.8178V9.9148H41.2139Z" fill="white"/>
<path d="M43.558 6.23852V9.92135H42.9541V5.11139H43.4606L46.3696 8.8663V5.11794H46.9735V9.9148H46.4281L43.558 6.23852Z" fill="white"/>
<path d="M51.7462 9.94757C51.4086 9.94757 51.1099 9.88204 50.8371 9.74443C50.5644 9.60681 50.3306 9.42333 50.1293 9.19397C49.9281 8.96461 49.7787 8.70249 49.6683 8.4076C49.5579 8.11926 49.506 7.81782 49.506 7.50983C49.506 7.18873 49.5644 6.88073 49.6748 6.5924C49.7917 6.30406 49.9475 6.04194 50.1488 5.81258C50.3501 5.58322 50.5904 5.40629 50.8631 5.26867C51.1358 5.13761 51.4345 5.07208 51.7527 5.07208C52.0904 5.07208 52.3891 5.14417 52.6618 5.28178C52.9345 5.4194 53.1683 5.60943 53.3631 5.84535C53.5579 6.08126 53.7137 6.34338 53.8176 6.63172C53.928 6.92005 53.98 7.21494 53.98 7.51638C53.98 7.83748 53.9215 8.14548 53.8111 8.43381C53.7007 8.72215 53.5449 8.98427 53.3371 9.21363C53.1358 9.44299 52.8956 9.61992 52.6228 9.75098C52.3631 9.8886 52.0644 9.94757 51.7462 9.94757ZM50.1164 7.51638C50.1164 7.75885 50.1553 7.99476 50.2332 8.22411C50.3112 8.45347 50.4216 8.65662 50.5644 8.827C50.7073 9.00393 50.8826 9.14155 51.0839 9.24639C51.2852 9.35124 51.506 9.40367 51.7527 9.40367C52.006 9.40367 52.2332 9.35124 52.4345 9.23984C52.6358 9.12844 52.8046 8.98427 52.9475 8.80734C53.0904 8.62385 53.1943 8.42071 53.2722 8.1979C53.3436 7.9751 53.3826 7.74574 53.3826 7.51638C53.3826 7.27392 53.3436 7.03801 53.2657 6.8152C53.1878 6.5924 53.0774 6.38925 52.928 6.21232C52.7852 6.03539 52.6098 5.89122 52.4085 5.79292C52.2072 5.69463 51.9865 5.6422 51.7462 5.6422C51.493 5.6422 51.2657 5.69463 51.0644 5.79947C50.8631 5.90432 50.6943 6.04849 50.5514 6.23198C50.4086 6.41546 50.3047 6.61206 50.2268 6.83486C50.1553 7.05111 50.1164 7.28047 50.1164 7.51638Z" fill="white"/>
<path d="M55.4345 6.23852V9.92135H54.8306V5.11139H55.3371L58.2461 8.8663V5.11794H58.85V9.9148H58.2981L55.4345 6.23852Z" fill="white"/>
</g>
<defs>
<clipPath id="clip0_1275_13766">
<rect width="97.7586" height="30" fill="white"/>
</clipPath>
</defs>
</svg>
