<svg width="20" height="20" viewBox="0 0 20 20" fill="none" xmlns="http://www.w3.org/2000/svg">
<path d="M1.5 20C1.1 20 0.75 19.85 0.45 19.55C0.15 19.25 0 18.9 0 18.5V7.5C0 7.1 0.15 6.75 0.45 6.45C0.75 6.15 1.1 6 1.5 6H18.5C18.9 6 19.25 6.15 19.55 6.45C19.85 6.75 20 7.1 20 7.5V18.5C20 18.9 19.85 19.25 19.55 19.55C19.25 19.85 18.9 20 18.5 20H1.5ZM1.5 18.5H18.5V7.5H1.5V18.5ZM8.175 16.725L13.7 13L8.175 9.3V16.725ZM1.725 4.5V3H18.275V4.5H1.725ZM5 1.5V0H15V1.5H5ZM1.5 18.5V7.5V18.5Z" fill="white"/>
</svg>
