<svg width="22" height="30" viewBox="0 0 22 30" fill="none" xmlns="http://www.w3.org/2000/svg">
<path d="M15.0647 29.565L21.0647 23.565C21.2046 23.4251 21.3155 23.2591 21.3912 23.0763C21.4669 22.8936 21.5059 22.6978 21.5059 22.5C21.5059 22.1005 21.3472 21.7174 21.0647 21.435C20.7823 21.1525 20.3992 20.9938 19.9997 20.9938C19.6003 20.9938 19.2172 21.1525 18.9347 21.435L15.4997 24.885L15.4997 7.49997C15.4997 7.10214 15.3417 6.72061 15.0604 6.43931C14.7791 6.158 14.3975 5.99997 13.9997 5.99997C13.6019 5.99997 13.2204 6.158 12.9391 6.43931C12.6578 6.72061 12.4997 7.10214 12.4997 7.49997L12.4997 28.5C12.5012 28.7961 12.5903 29.0852 12.7558 29.3308C12.9213 29.5763 13.1558 29.7674 13.4297 29.88C13.7029 29.9948 14.004 30.0262 14.2949 29.9702C14.5859 29.9141 14.8538 29.7731 15.0647 29.565ZM9.49972 22.5L9.49972 1.49996C9.49824 1.20383 9.40914 0.914752 9.24364 0.669172C9.07814 0.423591 8.84365 0.232495 8.56972 0.119964C8.29655 0.00509531 7.99549 -0.0262887 7.7045 0.0297725C7.41352 0.0858337 7.14566 0.226828 6.93472 0.434965L0.934723 6.43497C0.79413 6.57441 0.682535 6.74031 0.606382 6.9231C0.530229 7.10589 0.491024 7.30195 0.491024 7.49997C0.491024 7.69798 0.530229 7.89404 0.606382 8.07683C0.682535 8.25962 0.79413 8.42552 0.934723 8.56497C1.07417 8.70556 1.24007 8.81715 1.42285 8.8933C1.60564 8.96946 1.8017 9.00866 1.99972 9.00866C2.19774 9.00866 2.3938 8.96946 2.57659 8.8933C2.75937 8.81715 2.92528 8.70556 3.06472 8.56497L6.49972 5.11496L6.49972 22.5C6.49972 22.8978 6.65775 23.2793 6.93906 23.5606C7.22036 23.8419 7.6019 24 7.99972 24C8.39754 24 8.77907 23.8419 9.06038 23.5606C9.34168 23.2793 9.49972 22.8978 9.49972 22.5Z" fill="#66A3B8"/>
</svg>
