<svg width="18" height="16" viewBox="0 0 18 16" fill="none" xmlns="http://www.w3.org/2000/svg">
<path d="M17.6329 2.29375C17.51 2.16667 17.3208 2.13042 17.1596 2.20458L17.0912 2.23583C17.0333 2.2625 16.9754 2.28917 16.9171 2.31542C17.0867 2.045 17.2212 1.75583 17.3142 1.45667C17.3658 1.29167 17.3096 1.11125 17.1729 1.00458C17.0362 0.897917 16.8479 0.886667 16.7 0.977083C16.2246 1.26583 15.7679 1.47375 15.2958 1.61875C14.5833 0.9275 13.6129 0.5 12.5417 0.5C10.3554 0.5 8.58332 2.27208 8.58332 4.45833C8.58332 4.46042 8.58332 4.54292 8.58332 4.66667L8.16707 4.63333C4.11582 4.15417 2.96249 1.42917 2.91457 1.31167C2.83707 1.11583 2.66624 0.972917 2.45999 0.93C2.25416 0.88625 2.04041 0.950833 1.89124 1.09958C1.80874 1.1825 1.08332 1.95 1.08332 3.41667C1.08332 4.46167 1.54916 5.30917 2.15207 5.96833C1.87124 5.79708 1.70749 5.65833 1.70332 5.65458C1.51124 5.48708 1.23624 5.45208 1.00791 5.56792C0.780407 5.68417 0.64624 5.92708 0.669157 6.18167C0.677073 6.26958 0.854573 7.93708 2.78082 9.19625L2.42957 9.26C2.21666 9.29875 2.03874 9.445 1.95957 9.64667C1.88082 9.84875 1.91166 10.0767 2.04166 10.25C2.08541 10.3087 2.89916 11.3667 4.66624 11.975C3.72249 12.2896 2.42582 12.5833 0.87499 12.5833C0.62999 12.5833 0.407073 12.7267 0.305823 12.95C0.204157 13.1733 0.242907 13.4354 0.404573 13.6196C0.471657 13.6967 2.09791 15.5 6.29166 15.5C13.2554 15.5 16.5 9.03542 16.5 4.66667V4.45833C16.5 4.39667 16.4933 4.33625 16.4908 4.27542C17.3625 3.43292 17.6904 2.80083 17.7062 2.76958C17.785 2.61125 17.7558 2.42042 17.6329 2.29375Z" fill="#fff"/>
</svg>
