<svg width="20" height="14" viewBox="0 0 20 14" fill="none" xmlns="http://www.w3.org/2000/svg">
<path d="M9.94051 0.541656C7.29355 0.541656 4.83423 0.73025 3.43091 1.02343C3.42792 1.02422 3.42493 1.02503 3.42196 1.02587C2.3647 1.26278 1.36916 2.02009 1.15959 3.20604C1.15931 3.20767 1.15904 3.2093 1.15877 3.21093C0.997767 4.16677 0.833252 5.41278 0.833252 7.20832C0.833252 9.00047 0.998331 10.2135 1.2019 11.2196C1.41662 12.3705 2.38918 13.1507 3.46265 13.3908C3.46778 13.3922 3.47294 13.3936 3.47811 13.3948C4.94271 13.6834 7.33261 13.875 9.97957 13.875C12.6265 13.875 15.0177 13.6834 16.4827 13.3948C16.4878 13.3936 16.493 13.3922 16.4981 13.3908C17.5554 13.1539 18.5509 12.3966 18.7605 11.2106C18.7611 11.2076 18.7616 11.2046 18.7621 11.2016C18.9207 10.2263 19.1261 8.9815 19.1666 7.18309C19.1666 7.17848 19.1666 7.17387 19.1666 7.16926C19.1666 5.36986 18.9606 4.1161 18.7597 3.12304C18.5467 1.9696 17.573 1.18727 16.4981 0.94693C16.4817 0.943279 16.4651 0.940293 16.4485 0.937978C15.0193 0.737052 12.5879 0.541656 9.94051 0.541656ZM8.39836 4.08414C8.55269 4.08095 8.71222 4.11745 8.86222 4.20214L12.447 6.22769C13.0516 6.56936 13.0516 7.43144 12.447 7.7731L8.86222 9.79865C8.26264 10.137 7.51538 9.70846 7.51538 9.02554V4.97444C7.51538 4.46225 7.93535 4.09371 8.39836 4.08414Z" fill="#fff"/>
</svg>
